<svg width="100" height="92" viewBox="0 0 100 92" fill="none" xmlns="http://www.w3.org/2000/svg">
<path opacity="0.75" d="M38.2272 7.39177C59.3395 7.39177 93.3933 -3.22223 99 19.5C104.607 42.2222 78 75.9746 38.2272 84.8536C8.15514 91.5669 -8.08086e-07 67.5132 -1.74309e-06 46.1227C-1.74309e-06 23 17.1149 7.39177 38.2272 7.39177Z" fill="url(#paint0_linear_135_1042)"/>
<path d="M37.202 68.9721C37.8308 68.9758 38.4541 68.8521 39.036 68.6081C39.618 68.3641 40.1471 68.0045 40.593 67.5502C41.0389 67.0958 41.3928 66.5555 41.6342 65.9605C41.8757 65.3654 42 64.7273 42 64.0828C42 63.4384 41.8757 62.8003 41.6342 62.2052C41.3928 61.6102 41.0389 61.0699 40.593 60.6155C40.1471 60.1611 39.618 59.8016 39.036 59.5576C38.4541 59.3135 37.8308 59.1898 37.202 59.1936H33.6319C33.3761 59.1936 33.1308 59.2977 32.9499 59.4831C32.769 59.6685 32.6674 59.92 32.6674 60.1822V66.9949H31.0251C30.8984 66.9949 30.773 67.0205 30.656 67.0701C30.5389 67.1198 30.4326 67.1926 30.343 67.2844C30.2535 67.3762 30.1824 67.4852 30.134 67.6052C30.0855 67.7251 30.0605 67.8537 30.0605 67.9835C30.0605 68.1133 30.0855 68.2419 30.134 68.3618C30.1824 68.4818 30.2535 68.5908 30.343 68.6826C30.4326 68.7744 30.5389 68.8472 30.656 68.8969C30.773 68.9465 30.8984 68.9721 31.0251 68.9721H32.6674V70.4526H31.0251C30.7693 70.4526 30.5239 70.5567 30.343 70.7421C30.1622 70.9275 30.0605 71.179 30.0605 71.4412C30.0605 71.7034 30.1622 71.9548 30.343 72.1402C30.5239 72.3256 30.7693 72.4298 31.0251 72.4298H32.6674V75.0114C32.6674 75.2736 32.769 75.525 32.9499 75.7104C33.1308 75.8958 33.3761 76 33.6319 76C33.8877 76 34.1331 75.8958 34.3139 75.7104C34.4948 75.525 34.5965 75.2736 34.5965 75.0114V72.4298H39.6998C39.9557 72.4298 40.201 72.3256 40.3819 72.1402C40.5628 71.9548 40.6644 71.7034 40.6644 71.4412C40.6644 71.179 40.5628 70.9275 40.3819 70.7421C40.201 70.5567 39.9557 70.4526 39.6998 70.4526H34.5965V68.9721H37.202ZM34.5965 61.1708H37.202C37.5769 61.1679 37.9487 61.2411 38.2958 61.3861C38.643 61.5312 38.9588 61.7452 39.2249 62.0159C39.4909 62.2866 39.7021 62.6086 39.8463 62.9634C39.9904 63.3181 40.0646 63.6986 40.0646 64.0828C40.0646 64.4671 39.9904 64.8476 39.8463 65.2023C39.7021 65.5571 39.4909 65.8791 39.2249 66.1498C38.9588 66.4204 38.643 66.6345 38.2958 66.7795C37.9487 66.9246 37.5769 66.9978 37.202 66.9949H34.5965V61.1708ZM16.3539 16.5852C16.5518 16.7513 16.806 16.83 17.0606 16.804C17.3151 16.778 17.5491 16.6494 17.7112 16.4466C17.8261 16.3026 18.2206 15.9475 18.9701 15.5297C19.0818 15.4685 19.1807 15.3854 19.2611 15.2851C19.3415 15.1848 19.4019 15.0692 19.4387 14.945C19.4755 14.8207 19.4881 14.6903 19.4758 14.5611C19.4634 14.4319 19.4263 14.3064 19.3667 14.1919C19.307 14.0774 19.2259 13.976 19.128 13.8936C19.0302 13.8112 18.9174 13.7493 18.7962 13.7116C18.675 13.6739 18.5477 13.6609 18.4217 13.6736C18.2956 13.6863 18.1732 13.7243 18.0615 13.7854L18.0485 13.7927C16.9338 14.414 16.4235 14.9373 16.2186 15.1932C16.1383 15.2936 16.0781 15.4092 16.0414 15.5335C16.0047 15.6578 15.9922 15.7882 16.0047 15.9174C16.0172 16.0466 16.0544 16.172 16.1142 16.2865C16.174 16.4009 16.2552 16.5022 16.3531 16.5845L16.3539 16.5852ZM21.9931 14.2553C22.0826 14.2553 22.1717 14.2425 22.2577 14.2173C24.9988 13.4177 28.4133 12.9772 31.8724 12.9772C32.1282 12.9772 32.3736 12.8731 32.5545 12.6877C32.7354 12.5023 32.837 12.2508 32.837 11.9886C32.837 11.7264 32.7354 11.475 32.5545 11.2896C32.3736 11.1042 32.1282 11 31.8724 11C28.1871 11 24.6797 11.4549 21.7296 12.3155C21.5056 12.3806 21.312 12.5265 21.1847 12.7264C21.0574 12.9263 21.005 13.1666 21.0371 13.403C21.0692 13.6395 21.1837 13.856 21.3594 14.0126C21.5351 14.1693 21.7602 14.2555 21.9931 14.2553Z" fill="#3A3A3A" stroke="#3A3A3A" stroke-width="0.5"/>
<path d="M37.1813 53.0161C34.9685 52.9116 32.7611 53.3157 30.7288 54.1973C28.6964 55.079 26.8931 56.4147 25.4573 58.102C24.0215 59.7893 22.9914 61.7832 22.4461 63.9307C21.9008 66.0782 21.8548 68.3221 22.3116 70.4901C22.7684 72.6582 23.7159 74.6927 25.0814 76.4374C26.4468 78.1821 28.1938 79.5907 30.1883 80.5549C32.1828 81.5192 34.3717 82.0134 36.587 81.9997C38.8022 81.986 40.9848 81.4648 42.9673 80.476C43.109 80.4039 43.2312 80.2986 43.3234 80.1691C43.4157 80.0396 43.4754 79.8897 43.4973 79.7322C43.5192 79.5747 43.5028 79.4142 43.4494 79.2644C43.396 79.1146 43.3072 78.9799 43.1905 78.8718C43.0414 78.7343 42.8538 78.6456 42.6528 78.6178C42.4518 78.59 42.2472 78.6244 42.0663 78.7163C39.3905 80.044 36.3285 80.3716 33.4325 79.6401C30.5365 78.9086 27.9971 77.1661 26.2725 74.7269C24.548 72.2877 23.7516 69.3124 24.0272 66.3377C24.3027 63.363 25.632 60.5846 27.7753 58.5039C29.9186 56.4231 32.7348 55.1769 35.7159 54.99C38.697 54.8031 41.6467 55.6878 44.0331 57.4846C46.4194 59.2813 48.0852 61.8718 48.73 64.7889C49.3749 67.7059 48.9563 70.7574 47.5497 73.3929C47.4472 73.5803 47.4097 73.7964 47.4431 74.0074C47.4766 74.2185 47.579 74.4124 47.7345 74.559L47.7783 74.5996C47.8858 74.6995 48.0148 74.7734 48.1553 74.8157C48.2959 74.8579 48.4443 74.8673 48.589 74.8432C48.7338 74.819 48.8711 74.762 48.9904 74.6765C49.1096 74.5909 49.2077 74.4792 49.277 74.3498C50.4351 72.1918 51.0275 69.7755 50.999 67.3265C50.9705 64.8775 50.3221 62.4756 49.1141 60.3451C47.9062 58.2146 46.1782 56.4251 44.0915 55.1434C42.0048 53.8618 39.6274 53.1299 37.1813 53.0161Z" fill="#3A3A3A" stroke="#3A3A3A" stroke-width="0.5"/>
<path d="M73.6666 46.1387C69.8701 44.6441 64.8439 43.8209 59.5134 43.8209C56.9877 43.8162 54.4659 44.0131 51.9725 44.4097V15.6511C51.9725 13.1749 49.7233 10.9257 45.6392 9.31785C41.8428 7.82321 36.8166 7 31.4863 7C26.1559 7 21.1297 7.82321 17.3334 9.31785C13.2492 10.9257 11 13.1749 11 15.6511V61.7001C11 63.8682 12.7536 65.889 15.9546 67.4326C15.9736 71.1156 17.043 74.7194 19.041 77.8336C21.039 80.9477 23.8853 83.4471 27.2559 85.0471C30.6264 86.6472 34.3857 87.2836 38.1057 86.8838C41.8257 86.484 45.3569 85.0642 48.2972 82.786C51.6188 83.6767 55.4833 84.1474 59.5136 84.1474C64.8441 84.1474 69.8703 83.3242 73.6668 81.8296C77.7508 80.2218 80 77.9725 80 75.4964V52.4719C80 49.9958 77.7508 47.7464 73.6666 46.1387ZM18.0699 11.1304C21.6377 9.72588 26.4024 8.95228 31.4864 8.95228C36.5705 8.95228 41.335 9.72588 44.9028 11.1304C48.1352 12.4031 49.9891 14.0508 49.9891 15.6511C49.9891 17.2513 48.1352 18.899 44.9028 20.1724C41.335 21.5769 36.5703 22.3505 31.4864 22.3505C26.4026 22.3505 21.6377 21.5762 18.0699 20.1724C14.8374 18.899 12.9836 17.2514 12.9836 15.6511C12.9836 14.0507 14.8374 12.4031 18.0699 11.1304ZM12.9836 27.1453C13.6169 27.6988 14.3098 28.1826 15.0498 28.5882C15.1617 28.657 15.2864 28.7031 15.4166 28.7238C15.5469 28.7445 15.68 28.7393 15.8082 28.7087C15.9364 28.678 16.0571 28.6225 16.1632 28.5453C16.2692 28.4681 16.3586 28.3708 16.4259 28.2592C16.4933 28.1475 16.5373 28.0238 16.5554 27.8951C16.5735 27.7665 16.5653 27.6356 16.5312 27.5102C16.4972 27.3847 16.4381 27.2672 16.3573 27.1646C16.2765 27.062 16.1757 26.9762 16.0607 26.9125C16.0487 26.9054 16.0364 26.8987 16.024 26.8921C14.0684 25.8021 12.9836 24.5507 12.9836 23.3269V19.4712C14.0398 20.4132 15.5012 21.2637 17.3332 21.9849C21.1297 23.4795 26.1559 24.3028 31.4864 24.3028C36.8169 24.3028 41.843 23.4795 45.6393 21.9849C47.4715 21.2637 48.9329 20.4132 49.9891 19.4712V23.3269C49.9891 24.9273 48.1352 26.5751 44.9028 27.8476C41.3352 29.2521 36.5703 30.0257 31.4864 30.0257C28.9672 30.0329 26.4519 29.8307 23.9672 29.4212C23.8263 29.3966 23.6817 29.4026 23.5434 29.4389C23.4051 29.4752 23.2766 29.5408 23.1668 29.6311C23.057 29.7215 22.9686 29.8344 22.9079 29.9619C22.8471 30.0894 22.8155 30.2285 22.8151 30.3693V30.3936C22.815 30.621 22.8966 30.8411 23.0454 31.015C23.1943 31.1889 23.4008 31.3055 23.6285 31.344C26.225 31.773 28.8537 31.9852 31.4864 31.9785C36.8168 31.9785 41.8431 31.1553 45.6393 29.6608C47.4715 28.9394 48.9329 28.0889 49.9891 27.1469V31.0027C49.9891 32.6029 48.1352 34.2506 44.9028 35.5232C41.335 36.9279 36.5703 37.7014 31.4864 37.7014C26.4026 37.7014 21.6374 36.928 18.0699 35.5235C14.8374 34.2496 12.9836 32.6026 12.9836 31.0007V27.1453ZM12.9836 34.8204C14.0398 35.7623 15.5012 36.613 17.3332 37.3343C21.1294 38.8286 26.1558 39.6518 31.4864 39.6518C36.8171 39.6518 41.843 38.8286 45.6393 37.3339C47.4715 36.6127 48.9329 35.762 49.9891 34.82V38.6758C49.9891 40.276 48.1352 41.9237 44.9028 43.1963C41.335 44.6008 36.5703 45.3744 31.4864 45.3744C26.4026 45.3744 21.6377 44.6008 18.0699 43.1963C14.8374 41.9241 12.9836 40.2759 12.9836 38.6756V34.8204ZM12.9836 42.495C14.0398 43.4369 15.5012 44.2875 17.3332 45.0088C21.1297 46.5035 26.1559 47.3265 31.4864 47.3265C36.8169 47.3265 41.843 46.5035 45.6393 45.0088C47.4715 44.2875 48.9329 43.4369 49.9891 42.495V44.7822C46.3166 45.5722 43.2662 46.8137 41.3395 48.372C38.2016 47.5072 34.8965 47.4113 31.7123 48.0925C28.5281 48.7737 25.5616 50.2114 23.0717 52.2801C17.0176 51.106 12.9836 48.7473 12.9836 46.3504V42.495ZM12.9836 50.1564C14.7468 51.7327 17.6206 53.0409 21.3344 53.9064C20.0226 55.2887 18.9193 56.8493 18.0582 58.5403C14.8637 57.2793 12.9836 55.6211 12.9836 54.0251V50.1564ZM16.0606 65.2812C14.0901 64.1843 12.9839 62.9153 12.9839 61.7001V57.8537C14.0253 58.7789 15.4609 59.614 17.2595 60.3284C16.6419 61.9207 16.2388 63.5858 16.0606 65.2812ZM48.5711 78.3667C48.385 78.1836 48.1328 78.0808 47.8697 78.0808C47.6067 78.0808 47.3544 78.1837 47.1684 78.3668C46.9824 78.5499 46.878 78.7982 46.878 79.0571C46.878 79.3159 46.9825 79.5642 47.1685 79.7473L47.9542 80.5204C44.9111 83.2134 41.0239 84.8014 36.9376 85.0207V83.9185C36.9376 83.6596 36.8331 83.4113 36.6471 83.2283C36.4611 83.0452 36.2089 82.9424 35.9458 82.9424C35.6828 82.9424 35.4305 83.0452 35.2445 83.2283C35.0585 83.4113 34.954 83.6596 34.954 83.9185V85.0207C30.8681 84.8014 26.9811 83.2137 23.9381 80.521L24.7238 79.7479C24.9098 79.5649 25.0143 79.3166 25.0143 79.0576C25.0143 78.7987 24.9098 78.5504 24.7238 78.3673C24.5378 78.1843 24.2855 78.0814 24.0224 78.0814C23.7594 78.0814 23.5071 78.1843 23.3211 78.3673L22.5356 79.1406C19.7998 76.1456 18.1866 72.32 17.9638 68.2984H19.0839C19.3469 68.2984 19.5992 68.1956 19.7852 68.0125C19.9712 67.8295 20.0756 67.5812 20.0756 67.3223C20.0756 67.0634 19.9712 66.8151 19.7852 66.6321C19.5992 66.449 19.3469 66.3462 19.0839 66.3462H17.9645C18.1873 62.3246 19.8004 58.499 22.5363 55.504L23.3219 56.2774C23.5079 56.4605 23.7602 56.5634 24.0232 56.5634C24.2863 56.5634 24.5385 56.4606 24.7245 56.2775C24.9106 56.0944 25.0151 55.8462 25.0151 55.5873C25.0151 55.3284 24.9106 55.0801 24.7246 54.897L23.9388 54.1236C26.9816 51.431 30.8683 49.8432 34.954 49.6236V50.7256C34.954 50.9845 35.0585 51.2328 35.2445 51.4159C35.4305 51.5989 35.6828 51.7018 35.9458 51.7018C36.2089 51.7018 36.4611 51.5989 36.6471 51.4159C36.8331 51.2328 36.9376 50.9845 36.9376 50.7256V49.6232C41.0236 49.8425 44.9105 51.4302 47.9535 54.1229L47.1677 54.8963C46.9817 55.0794 46.8772 55.3277 46.8772 55.5866C46.8772 55.8455 46.9818 56.0938 47.1678 56.2769C47.3538 56.4599 47.6061 56.5627 47.8691 56.5627C48.1321 56.5627 48.3844 56.4598 48.5704 56.2768L49.3561 55.5033C52.0919 58.4983 53.705 62.324 53.9278 66.3455H52.808C52.5449 66.3455 52.2927 66.4484 52.1067 66.6314C51.9207 66.8145 51.8162 67.0628 51.8162 67.3217C51.8162 67.5805 51.9207 67.8288 52.1067 68.0119C52.2927 68.195 52.5449 68.2978 52.808 68.2978H53.9278C53.705 72.3193 52.0919 76.145 49.3561 79.14L48.5711 78.3667ZM78.0164 75.496C78.0164 77.0964 76.1625 78.7441 72.9301 80.0167C69.3623 81.4212 64.5976 82.1948 59.5136 82.1948C56.3458 82.2127 53.1857 81.8842 50.0916 81.2154C51.5981 79.7299 52.8547 78.0179 53.8144 76.1437C55.6664 76.3617 57.5298 76.4716 59.3949 76.4728C64.7252 76.4728 69.8703 75.6494 73.6668 74.1548C75.4988 73.4336 76.9602 72.5829 78.0164 71.6409V75.496ZM78.0164 67.8211C78.0164 69.4215 76.1625 71.0692 72.9301 72.3419C69.3623 73.7465 64.5978 74.5199 59.5079 74.5199C57.8852 74.5275 56.2633 74.4449 54.65 74.2726C55.3419 72.4743 55.7604 70.5853 55.8919 68.6668C57.0761 68.753 58.2871 68.7969 59.4517 68.7969C64.7821 68.7969 69.8699 67.9737 73.6673 66.4791C75.4993 65.7579 76.9607 64.9073 78.0169 63.9654L78.0164 67.8211ZM78.0164 60.1465C78.0164 61.7467 76.1625 63.3945 72.9301 64.667C69.3623 66.0715 64.5976 66.845 59.5109 66.845C58.3208 66.8466 57.1202 66.8012 55.9293 66.7109C55.8689 64.7324 55.504 62.7744 54.8469 60.9037C56.3606 61.0482 57.8805 61.1213 59.4013 61.1228C64.7317 61.1228 69.8703 60.2994 73.6665 58.8048C75.4985 58.0836 76.9599 57.2329 78.0161 56.2909L78.0164 60.1465ZM72.9301 56.9924C69.3623 58.3971 64.5976 59.1707 59.5079 59.1707C57.6628 59.1795 55.8191 59.0716 53.988 58.8476C51.8568 54.4778 48.1708 51.0293 43.6287 49.1558C46.9935 47.0953 53.0442 45.7732 59.5137 45.7732C64.5978 45.7732 69.3625 46.5467 72.9302 47.9513C76.1626 49.2238 78.0166 50.8715 78.0166 52.4719C78.0166 54.0723 76.1626 55.7202 72.9301 56.9924Z" fill="#3A3A3A" stroke="#3A3A3A" stroke-width="0.5"/>
<path d="M88.4673 38.3475C90.3409 38.3475 91.8652 36.7806 91.8652 34.8547C91.8659 34.2101 91.6919 33.5779 91.3626 33.0292C92.4883 32.3917 93.2529 31.1601 93.2529 29.7481C93.2529 28.8759 92.9605 28.0732 92.4721 27.4361C93.396 26.7564 94 25.6449 94 24.3905C94 23.147 93.4067 22.0438 92.4962 21.3626C93.011 20.7014 93.2911 19.8796 93.2905 19.0328C93.2905 16.9686 91.6567 15.2892 89.6486 15.2892H82.5964C82.988 11.8227 83.4232 5.42004 80.634 2.50654C79.5053 1.32757 78.0082 0.837114 76.184 1.04735C75.042 1.17924 74.223 2.20472 74.3195 3.38202C74.6897 7.89922 74.3507 10.8076 73.22 12.8124C72.088 14.8199 70.0238 16.0592 66.7597 16.6829C66.3086 16.0369 65.5737 15.6136 64.7429 15.6136H60.4832C59.1139 15.6136 58 16.7587 58 18.1663V36.264C58 37.6716 59.1139 38.8167 60.4832 38.8167H64.7427C65.7011 38.8167 66.5328 38.2547 66.9466 37.4354C68.226 37.5531 69.0267 37.7976 69.9371 38.0768C70.6389 38.292 71.3646 38.5144 72.3606 38.7011C73.5207 38.9182 74.7734 39 76.0603 39C78.1754 39 80.3827 38.7791 82.4209 38.5751C83.2699 38.4902 84.072 38.4101 84.8397 38.3477H88.4674L88.4673 38.3475ZM90.358 22.7766C91.2238 22.7766 91.928 23.5006 91.928 24.3905C91.928 25.2804 91.2237 26.0044 90.358 26.0044H83.4676C82.6019 26.0044 81.8977 25.2804 81.8977 24.3905C81.8977 23.5006 82.602 22.7766 83.4676 22.7766H90.358ZM83.6759 28.1343H89.611C90.4767 28.1343 91.181 28.8583 91.181 29.7481C91.181 30.6378 90.4766 31.3621 89.611 31.3621H83.6759C82.8101 31.3621 82.106 30.6381 82.106 29.7482C82.106 28.8583 82.8103 28.1343 83.6759 28.1343ZM88.4673 36.2179H84.7969C84.0658 36.2179 83.4711 35.6065 83.4711 34.855C83.4711 34.1035 84.0658 33.492 84.7969 33.492H88.4673C89.1984 33.492 89.7933 34.1034 89.7933 34.8549C89.7933 35.6064 89.1984 36.2179 88.4673 36.2179ZM89.6484 17.4191C90.5143 17.4191 91.2185 18.143 91.2185 19.033C91.2185 19.9229 90.5142 20.6469 89.6484 20.6469H84.479C83.6131 20.6469 82.909 19.9229 82.909 19.033C82.909 18.143 83.6133 17.4191 84.479 17.4191H89.6484ZM65.1541 36.264C65.1541 36.4933 64.9659 36.6869 64.7429 36.6869H60.4832C60.2601 36.6869 60.0719 36.4933 60.0719 36.264V18.1663C60.0719 17.937 60.2601 17.7434 60.4832 17.7434H64.7427C64.9657 17.7434 65.154 17.937 65.154 18.1663L65.1541 36.264ZM72.7319 36.6057C71.8478 36.4402 71.1776 36.2347 70.5292 36.0358C69.6114 35.7544 68.6654 35.4648 67.226 35.323V18.7602C71.0784 18.009 73.5659 16.4456 75.0125 13.8805C76.369 11.4749 76.792 8.18187 76.384 3.20312C76.3834 3.19367 76.3863 3.18435 76.3922 3.17704C76.398 3.16973 76.4064 3.16497 76.4155 3.16372C77.5913 3.02833 78.4884 3.30139 79.1572 4.00026C81.6063 6.55854 80.6957 13.8289 80.3966 16.218C80.3961 16.2226 80.3962 16.2272 80.3956 16.2317C80.3932 16.2551 80.3915 16.2785 80.3906 16.302C80.3898 16.3162 80.389 16.3305 80.3888 16.3446C80.3887 16.3653 80.3897 16.3863 80.3907 16.4071C80.3916 16.4239 80.3921 16.4406 80.3935 16.4572C80.394 16.4613 80.3938 16.4654 80.3943 16.4697C80.9105 21.3246 79.72 23.779 76.2856 24.9412C76.0515 25.0203 75.8525 25.1825 75.7243 25.3988C75.5961 25.6151 75.5471 25.8712 75.5861 26.1213C75.6251 26.3714 75.7495 26.599 75.937 26.7633C76.1245 26.9275 76.3628 27.0178 76.6092 27.0177C76.7167 27.0177 76.8257 27.0004 76.9332 26.9639C78.1192 26.5627 79.1211 26.0079 79.9364 25.3064C80.1143 26.0272 80.4968 26.6772 81.0352 27.1738C80.4154 27.8453 80.0339 28.7515 80.0339 29.7481C80.0339 31.1531 80.7912 32.3791 81.9077 33.0193C81.5746 33.5703 81.3984 34.2061 81.399 34.8547C81.399 35.4482 81.5442 36.0072 81.7992 36.4971C78.7615 36.7995 75.3903 37.103 72.7317 36.6056L72.7319 36.6057Z" fill="#3A3A3A" stroke="#3A3A3A" stroke-width="0.5"/>
<defs>
<linearGradient id="paint0_linear_135_1042" x1="-13.893" y1="76.4436" x2="95.0437" y2="11.0354" gradientUnits="userSpaceOnUse">
<stop stop-color="#F5E127"/>
<stop offset="1" stop-color="#F3C245"/>
</linearGradient>
</defs>
</svg>
