<svg width="93" height="90" viewBox="0 0 93 90" fill="none" xmlns="http://www.w3.org/2000/svg">
<g id="advance icon">
<path id="Ellipse 1" opacity="0.75" d="M35.5718 81.7879C66.6363 85.2783 83.7621 88.0269 89.3804 65.3666C94.9987 42.7062 102.711 28.9323 38.3047 6.14096C12.5239 -2.98195 0.999999 20.5648 0.999998 41.897C0.999998 64.9566 13.2983 81.7878 35.5718 81.7879Z" fill="url(#paint0_linear_135_434)"/>
<g id="Vector">
<path d="M17.25 72.5C18.0784 72.5 18.75 71.8284 18.75 71C18.75 70.1716 18.0784 69.5 17.25 69.5C16.4216 69.5 15.75 70.1716 15.75 71C15.75 71.8284 16.4216 72.5 17.25 72.5Z" fill="#3A3A3A"/>
<path d="M47.8 72.4C48.6284 72.4 49.3 71.7284 49.3 70.9C49.3 70.0716 48.6284 69.4 47.8 69.4C46.9716 69.4 46.3 70.0716 46.3 70.9C46.3 71.7284 46.9716 72.4 47.8 72.4Z" fill="#3A3A3A"/>
<path d="M60.2 72.3999C61.0284 72.3999 61.7 71.7283 61.7 70.8999C61.7 70.0715 61.0284 69.3999 60.2 69.3999C59.3716 69.3999 58.7 70.0715 58.7 70.8999C58.7 71.7283 59.3716 72.3999 60.2 72.3999Z" fill="#3A3A3A"/>
<path d="M72.8 72.3999C73.6284 72.3999 74.3 71.7283 74.3 70.8999C74.3 70.0715 73.6284 69.3999 72.8 69.3999C71.9716 69.3999 71.3 70.0715 71.3 70.8999C71.3 71.7283 71.9716 72.3999 72.8 72.3999Z" fill="#3A3A3A"/>
<path d="M85.6907 38.1993L38.0674 11.5765C37.3914 11.1987 36.631 11.0003 35.8577 11C34.1238 11 32.5633 11.9701 31.788 13.5306L31.609 13.8907C31.2944 14.527 31.1302 15.2278 31.129 15.9384V16.1199C31.129 17.7684 32.0153 19.2968 33.4427 20.1078L39.4252 23.5038L33.2291 33.2035C32.7633 33.932 32.5157 34.78 32.5161 35.6462C32.5152 36.4656 32.736 37.2697 33.1549 37.9723C33.5737 38.6749 34.1748 39.2494 34.8936 39.6342L40.8388 42.825V52.875C39.3088 52.875 38.0646 54.1271 38.0646 55.6667V58.4583H35.2904V44.5001C35.2904 41.4209 32.802 38.9168 29.7421 38.9168H17.8949C15.2595 38.9168 12.972 40.804 12.4547 43.4043L10.4823 53.3272L4.30004 56.4386C2.8808 57.152 2 58.5882 2 60.1836V68.2292C2 70.5379 3.86702 72.4167 6.16127 72.4167H10.4627C11.1078 75.5977 13.9083 78 17.2581 78C20.608 78 23.4085 75.5977 24.0535 72.4167H40.979C41.624 75.5977 44.4246 78 47.7744 78C50.5319 78 52.8997 76.3599 54.0163 74.0079C55.1329 76.3599 57.5007 78 60.2582 78C63.0157 78 65.3835 76.3599 66.5001 74.0079C67.6167 76.3599 69.9845 78 72.742 78C76.0904 78 78.8924 75.5977 79.5374 72.4167H82.4516C83.9817 72.4167 85.2258 71.1646 85.2258 69.6251V61.2501C85.2258 59.7104 83.9817 58.4585 82.4516 58.4585H80.5347L87.5256 44.3871C87.8368 43.7599 87.9992 43.0685 88 42.3674V42.1509C87.9998 41.3449 87.7856 40.5537 87.3796 39.859C86.9736 39.1642 86.3905 38.5913 85.6907 38.1993ZM34.8063 17.6763C34.5325 17.5204 34.3047 17.2942 34.146 17.0207C33.9874 16.7473 33.9037 16.4365 33.9034 16.1199V15.9384C33.9034 15.6621 33.9685 15.3857 34.0906 15.1387L34.2696 14.7785C34.4163 14.4812 34.6429 14.2311 34.9236 14.0567C35.2043 13.8823 35.5279 13.7904 35.8579 13.7916C36.1588 13.7916 36.4571 13.8698 36.7207 14.0164L43.1804 17.6273L40.9292 21.1519L34.8063 17.6763ZM35.2904 35.6462C35.2904 35.314 35.3847 34.9916 35.5637 34.7124L41.8459 24.8788L50.8565 29.9931L43.9293 41.3203L36.1989 37.1719C35.9241 37.0246 35.6944 36.8047 35.5343 36.5359C35.3743 36.2671 35.29 35.9596 35.2904 35.6462ZM56.9056 48.2842L63.6498 37.2557L72.0043 41.9974L65.3795 52.8304L56.9056 48.2842ZM54.4532 46.9679L46.3817 42.6366L53.2741 31.3652L61.2318 35.8835L54.4532 46.9679ZM43.613 44.3144L69.9678 58.4585H46.3872V55.6668C46.3872 54.1272 45.143 52.8752 43.613 52.8752V44.3144ZM40.8388 55.6668H43.613V58.4585H40.8388V55.6668ZM22.7704 66.8334H42.2605C41.6475 67.6486 41.1883 68.588 40.9788 69.6251H24.0535C23.8427 68.588 23.3849 67.6486 22.7704 66.8334ZM26.9678 52.875H18.8949L19.8202 47.2917H26.9679L26.9678 52.875ZM18.6452 55.6668H26.9678V57.0626H24.1936V59.8543H26.9678V64.0418H18.6452V55.6668ZM11.7222 55.8245C12.4934 55.4379 13.033 54.7274 13.2023 53.8759L15.1747 43.953C15.4341 42.652 16.577 41.7084 17.8949 41.7084H29.7421C31.2721 41.7084 32.5163 42.9606 32.5163 44.5001V64.0418H29.7421V47.2917C29.7421 45.7521 28.4978 44.5001 26.9679 44.5001H19.8202C19.1627 44.4982 18.5262 44.7321 18.0246 45.1598C17.5231 45.5876 17.1894 46.1811 17.0833 46.834L15.889 54.042L15.8738 64.0418H10.3225V61.2501C10.3225 59.7104 9.07824 58.4585 7.54836 58.4585H6.48856L11.7222 55.8245ZM7.54836 61.2501V64.0418H4.77418V61.2501H7.54836ZM4.77418 68.2292V66.8334H11.7457C11.1325 67.6486 10.6734 68.588 10.464 69.6251H6.16127C5.39705 69.6251 4.77418 68.9997 4.77418 68.2292ZM17.2581 75.2085C14.9639 75.2085 13.0969 73.3297 13.0969 71.021C13.0969 68.7123 14.9639 66.8335 17.2581 66.8335C19.5524 66.8335 21.4194 68.7123 21.4194 71.021C21.4194 73.3296 19.5524 75.2085 17.2581 75.2085ZM47.7743 75.2085C45.48 75.2085 43.613 73.3297 43.613 71.021C43.613 68.7123 45.48 66.8335 47.7743 66.8335C50.0685 66.8335 51.9355 68.7123 51.9355 71.021C51.9355 73.3296 50.0685 75.2085 47.7743 75.2085ZM60.2582 75.2085C57.964 75.2085 56.0969 73.3297 56.0969 71.021C56.0969 68.7123 57.964 66.8335 60.2582 66.8335C62.5525 66.8335 64.4195 68.7123 64.4195 71.021C64.4195 73.3296 62.5525 75.2085 60.2582 75.2085ZM72.742 75.2085C70.4478 75.2085 68.5807 73.3297 68.5807 71.021C68.5807 68.7123 70.4478 66.8335 72.742 66.8335C75.0363 66.8335 76.9033 68.7123 76.9033 71.021C76.9034 73.3296 75.0364 75.2085 72.742 75.2085ZM82.4518 69.6251H79.5374C78.8924 66.444 76.0919 64.0418 72.742 64.0418C69.9845 64.0418 67.6167 65.6818 66.5001 68.0338C65.3835 65.6818 63.0157 64.0418 60.2582 64.0418C57.5007 64.0418 55.1329 65.6818 54.0163 68.0338C52.8997 65.6818 50.5319 64.0418 47.7744 64.0418H35.2904V61.2501H82.4518V69.6251ZM77.9076 57.5023C77.6149 58.0914 77.0268 58.4585 76.293 58.4585C76.011 58.4576 75.7335 58.3877 75.4843 58.2547L67.8317 54.1481L74.4218 43.3709L82.6182 48.0233L77.9076 57.5023ZM85.226 42.3673C85.226 42.6338 85.1636 42.9018 85.0442 43.1405L83.8596 45.5233L43.3481 22.5255L45.609 18.9857L84.3424 40.6393C84.6101 40.7894 84.833 41.0086 84.9884 41.2743C85.1437 41.5401 85.2257 41.8427 85.226 42.151V42.3673Z" fill="#3A3A3A"/>
</g>
</g>
<defs>
<linearGradient id="paint0_linear_135_434" x1="-11.8143" y1="13.5514" x2="92.1357" y2="71.8995" gradientUnits="userSpaceOnUse">
<stop stop-color="#F5E127"/>
<stop offset="1" stop-color="#F3C245"/>
</linearGradient>
</defs>
</svg>
