<svg width="92" height="90" viewBox="0 0 92 90" fill="none" xmlns="http://www.w3.org/2000/svg">
<g id="advance icon">
<path id="Ellipse 1" opacity="0.75" d="M38.8337 84.9934C61.4599 90.891 84.9164 89.746 90.612 66.5114C96.3076 43.2769 85.3327 12.8943 41.6505 3.07853C11.1013 -3.78616 -9.40512e-07 23.5164 -1.8966e-06 45.3892C-1.90335e-06 69.0332 18.7935 79.7698 38.8337 84.9934Z" fill="url(#paint0_linear_135_880)"/>
<path id="Vector" d="M59.7672 38.7897L48 33.768M51.109 25L67.0969 31.8236C67.9871 32.203 68.7666 32.4021 68.3839 33.3554L67.9688 34.3797C67.6643 35.1335 67.9641 35.7453 68.6423 36.0345L71.9542 37.4477C72.8952 37.8506 73.1534 37.0114 73.232 36.8123L73.4579 36.2526C73.9008 35.1146 75.0171 35.2047 75.2755 35.3137L79.3438 37.0493C84.8883 39.4202 80.7829 47.7614 75.8658 45.6653L58.0627 38.0515M5 67.0787V73.8995C5 75.055 5.93552 76 7.07947 76H14.9205C16.0643 76 17 75.055 17 73.8995V53.1005C17 51.945 16.0643 51 14.9205 51H7.07947C5.93552 51 5 51.945 5 53.1005V68.1141M18.4859 25.7038L24.297 11.893C25.6452 8.68384 29.4081 7.14859 32.6591 8.4798L42.3928 12.4728C49.4912 15.3805 52.8831 23.4917 49.9375 30.499C46.992 37.5066 38.771 40.8597 31.6772 37.9518L21.9435 33.9589C18.6926 32.6278 17.1377 28.9131 18.4859 25.7038ZM27.2828 24.1395L29.8893 18.1649C30.6716 16.3803 32.8413 15.527 34.7231 16.2663C36.5998 17.0103 37.4975 19.0779 36.7199 20.8624L34.1085 26.8371C33.3311 28.6216 31.1566 29.475 29.2796 28.731C27.3981 27.9917 26.5003 25.9241 27.2828 24.1395ZM44.9748 79.387C46.5088 79.8779 49.2112 80.3454 52.3656 79.6418L81.3082 73.1558C86.3618 72.0229 86.3208 64.4556 80.6053 65.4563L61.3862 68.5104C58.9943 68.8883 57.1317 68.2038 54.7441 67.8166L42.6969 65.022C38.7299 63.7097 40.2728 58.6207 43.7332 59.1637C46.1254 59.4752 47.2209 59.5272 49.9464 59.8104C57.0998 60.561 57.7251 51.9552 51.48 50.3785L46.3078 49.3967C41.583 48.5045 38.1411 49.1699 30.8916 50.8646L17 54.1126V72.037L44.9748 79.387Z" stroke="#3A3A3A" stroke-width="3" stroke-miterlimit="10" stroke-linecap="round" stroke-linejoin="round"/>
</g>
<defs>
<linearGradient id="paint0_linear_135_880" x1="-12.8143" y1="12.1357" x2="94.6014" y2="68.2226" gradientUnits="userSpaceOnUse">
<stop stop-color="#F5E127"/>
<stop offset="1" stop-color="#F3C245"/>
</linearGradient>
</defs>
</svg>
