<svg width="92" height="90" viewBox="0 0 92 90" fill="none" xmlns="http://www.w3.org/2000/svg">
<g id="advance icon">
<path id="Ellipse 1" opacity="0.75" d="M58.2052 5.32978C30.5527 24.7861 14.8617 5.78214 4.87467 27.8597C-5.11233 49.9373 3.27026 72.9883 41.0145 86.9518C78.7587 100.915 90.9455 63.5115 90.9455 43.4029C90.9455 21.6658 93.7987 -5.11021 58.2052 5.32978Z" fill="url(#paint0_linear_135_1097)"/>
<g id="Vector">
<path d="M89.4686 62.6607C89.5327 62.3719 89.567 62.0773 89.571 61.7815C89.5707 61.1185 89.4205 60.4641 89.1316 59.867C88.8427 59.27 88.4225 58.7457 87.9023 58.3332L79.9223 14.0227C79.9292 13.9182 79.9377 13.8144 79.9377 13.7038C79.9413 12.8711 79.7614 12.0478 79.4107 11.2922C79.06 10.5366 78.5471 9.86725 77.9083 9.33151C77.2696 8.79577 76.5206 8.40676 75.7144 8.19205C74.9083 7.97733 74.0647 7.94217 73.2434 8.08904C72.4221 8.23591 71.6432 8.56122 70.9619 9.04194C70.2806 9.52265 69.7136 10.147 69.3009 10.8708C68.8883 11.5945 68.6402 12.4 68.5742 13.2301C68.5082 14.0602 68.626 14.8946 68.9191 15.6742L52.6156 36.7144L49.1504 25.0093C48.826 23.9392 48.1664 23.0012 47.2684 22.333C46.3704 21.6647 45.2814 21.3015 44.1612 21.2966H30.6084C29.2303 21.2982 27.9092 21.8453 26.9347 22.8178C25.9603 23.7902 25.4122 25.1087 25.4105 26.484V39.3719H22.1378V34.7993C22.1378 34.4426 21.9959 34.1005 21.7431 33.8483C21.4904 33.5961 21.1477 33.4544 20.7902 33.4544H7.50691C7.14951 33.4544 6.80674 33.5961 6.55402 33.8483C6.3013 34.1005 6.15933 34.4426 6.15933 34.7993V39.3734C4.7881 39.3848 3.47682 39.9359 2.51065 40.9071C1.54448 41.8782 1.00158 43.1908 1 44.5593V58.5999C1.00163 59.9752 1.54978 61.2937 2.52421 62.2662C3.49864 63.2387 4.81978 63.7857 6.19783 63.7873H13.5972L11.3949 66.4771H10.8066C8.6111 66.4771 6.50555 67.3475 4.95312 68.8968C3.40069 70.4462 2.52855 72.5475 2.52855 74.7386C2.52855 76.9296 3.40069 79.031 4.95312 80.5803C6.50555 82.1296 8.6111 83 10.8066 83H50.6396C52.8351 83 54.9407 82.1296 56.4931 80.5803C58.0455 79.031 58.9177 76.9296 58.9177 74.7386C58.9177 72.5475 58.0455 70.4462 56.4931 68.8968C54.9407 67.3475 52.8351 66.4771 50.6396 66.4771H50.0459L47.8474 63.7873H50.8221C52.2002 63.7857 53.5213 63.2387 54.4958 62.2662C55.4702 61.2937 56.0183 59.9752 56.02 58.5999V58.0182L72.0416 25.9507L80.9565 60.3713C80.8022 60.8255 80.7241 61.302 80.7254 61.7815C80.7315 62.3871 80.8625 62.9849 81.1105 63.5376L68.1736 77.9524C68.032 78.1103 67.9298 78.2994 67.8752 78.5042C67.8207 78.709 67.8155 78.9238 67.8599 79.131C67.9043 79.3382 67.9972 79.532 68.131 79.6966C68.2647 79.8612 68.4355 79.9919 68.6295 80.0781C71.5451 81.4367 74.7131 82.172 77.9302 82.2369C79.7009 82.2951 81.4652 81.9957 83.1171 81.3567C84.7691 80.7176 86.2746 79.7521 87.5434 78.5181C91.3359 74.6832 92.0536 68.6443 89.4686 62.6607ZM86.8758 61.7815C86.8751 62.1224 86.7731 62.4555 86.5829 62.7386C86.3926 63.0217 86.1226 63.2423 85.8068 63.3724C85.4911 63.5025 85.1438 63.5363 84.8088 63.4696C84.4739 63.403 84.1662 63.2387 83.9246 62.9977C83.6831 62.7566 83.5185 62.4495 83.4517 62.1152C83.3849 61.7809 83.4188 61.4343 83.5492 61.1192C83.6795 60.8041 83.9005 60.5346 84.1842 60.3448C84.4679 60.1549 84.8016 60.0532 85.1432 60.0524C85.3709 60.0519 85.5964 60.0963 85.8068 60.183C86.0173 60.2697 86.2085 60.397 86.3695 60.5577C86.5305 60.7184 86.6581 60.9092 86.745 61.1192C86.8319 61.3292 86.8763 61.5543 86.8758 61.7815ZM74.247 10.7143C75.0408 10.7163 75.8016 11.0319 76.3629 11.5921C76.9242 12.1523 77.2405 12.9115 77.2425 13.7038C77.2292 14.4918 76.9091 15.2436 76.35 15.8002C75.7908 16.3568 75.0366 16.6743 74.247 16.6856C73.4536 16.6856 72.6926 16.371 72.1316 15.8111C71.5706 15.2512 71.2554 14.4918 71.2554 13.6999C71.2554 12.9081 71.5706 12.1487 72.1316 11.5887C72.6926 11.0288 73.4536 10.7143 74.247 10.7143ZM44.1612 23.9864C44.7008 23.9888 45.2253 24.1637 45.658 24.4854C46.0906 24.8071 46.4086 25.2587 46.5653 25.7739L52.8682 47.0569H45.0468L38.7986 23.9864H44.1612ZM28.1057 26.484C28.1065 25.8219 28.3705 25.187 28.8396 24.7188C29.3088 24.2506 29.9449 23.9872 30.6084 23.9864H36.0064L42.2546 47.0569H36.6147L28.1057 40.0804V26.484ZM8.8545 36.1442H19.4427V39.3719H8.8545V36.1442ZM50.6396 69.1669C52.1203 69.1669 53.5403 69.7539 54.5873 70.7988C55.6343 71.8437 56.2225 73.2609 56.2225 74.7386C56.2225 76.2163 55.6343 77.6334 54.5873 78.6783C53.5403 79.7232 52.1203 80.3102 50.6396 80.3102H10.8066C9.3259 80.3102 7.90588 79.7232 6.8589 78.6783C5.81191 77.6334 5.22372 76.2163 5.22372 74.7386C5.22372 73.2609 5.81191 71.8437 6.8589 70.7988C7.90588 69.7539 9.3259 69.1669 10.8066 69.1669H50.6396ZM14.8755 66.4771L17.0786 63.7873H44.3684L46.5676 66.4771H14.8755ZM53.3248 53.9966H29.1376C28.7802 53.9966 28.4374 54.1383 28.1847 54.3905C27.932 54.6427 27.79 54.9848 27.79 55.3414C27.79 55.6981 27.932 56.0402 28.1847 56.2924C28.4374 56.5446 28.7802 56.6863 29.1376 56.6863H53.3248V58.5999C53.324 59.2621 53.06 59.8969 52.5909 60.3651C52.1217 60.8333 51.4856 61.0967 50.8221 61.0976H6.19783C5.53433 61.0967 4.89824 60.8333 4.42908 60.3651C3.95992 59.8969 3.69599 59.2621 3.69517 58.5999V44.5593C3.69599 43.8971 3.95992 43.2623 4.42908 42.7941C4.89824 42.3259 5.53433 42.0625 6.19783 42.0616H26.2745L35.2741 49.4393C35.515 49.6375 35.8174 49.7461 36.1296 49.7467H53.3248V53.9966ZM56.02 51.9908V48.4018C56.0107 48.2726 55.9921 48.1442 55.9645 48.0176L53.5558 39.9022L70.5285 17.9997C71.0963 18.4842 71.7519 18.8556 72.4597 19.0941L56.02 51.9908ZM73.8759 22.2841L75.3882 19.2539C75.419 19.2478 75.4467 19.2362 75.4768 19.2301C76.371 19.0318 77.2043 18.6217 77.9063 18.0343L84.9907 57.3657C84.3293 57.3966 83.6822 57.5691 83.0933 57.8714L73.8759 22.2841ZM85.6206 76.6275C82.4634 79.8153 77.2548 80.4109 71.4571 78.3183L82.8947 65.5803C83.6188 66.0054 84.449 66.2166 85.2887 66.1894C86.1284 66.1622 86.9432 65.8977 87.6382 65.4266C88.9911 69.7832 88.285 73.9408 85.6206 76.6275Z" fill="#3A3A3A"/>
<path d="M7.83544 75.0455C7.83544 75.7196 8.05613 76.3786 8.46959 76.9391C8.88305 77.4997 9.47071 77.9365 10.1583 78.1945C10.8458 78.4524 11.6023 78.5199 12.3322 78.3883C13.0621 78.2567 13.7325 77.932 14.2586 77.4553C14.7848 76.9786 15.1431 76.3712 15.2882 75.71C15.4333 75.0488 15.3586 74.3634 15.0738 73.7406C14.7889 73.1178 14.3065 72.5856 13.6877 72.2111C13.0688 71.8367 12.3413 71.6369 11.5971 71.6371C10.5998 71.6383 9.64369 71.9979 8.93852 72.6368C8.23335 73.2758 7.83666 74.142 7.83544 75.0455ZM12.6771 75.0455C12.6771 75.2389 12.6137 75.4281 12.4951 75.589C12.3764 75.7498 12.2077 75.8752 12.0104 75.9493C11.8131 76.0233 11.5959 76.0427 11.3865 76.0049C11.177 75.9672 10.9846 75.874 10.8335 75.7372C10.6825 75.6004 10.5796 75.4261 10.538 75.2363C10.4963 75.0465 10.5177 74.8498 10.5994 74.6711C10.6812 74.4923 10.8196 74.3395 10.9972 74.232C11.1748 74.1245 11.3836 74.0672 11.5971 74.0672C11.8834 74.0675 12.1579 74.1707 12.3603 74.3541C12.5627 74.5375 12.6767 74.7861 12.6771 75.0455ZM24.2787 78.4545C25.023 78.4547 25.7507 78.2549 26.3697 77.8803C26.9886 77.5058 27.4711 76.9734 27.756 76.3505C28.041 75.7276 28.1156 75.0421 27.9705 74.3808C27.8254 73.7195 27.467 73.1119 26.9408 72.6351C26.4145 72.1583 25.7439 71.8335 25.0139 71.7019C24.2839 71.5703 23.5272 71.6378 22.8395 71.8958C22.1518 72.1538 21.5641 72.5908 21.1505 73.1514C20.737 73.712 20.5162 74.3712 20.5162 75.0455C20.5173 75.9492 20.914 76.8157 21.6193 77.4548C22.3247 78.0939 23.2811 78.4534 24.2787 78.4545ZM24.2787 74.0672C24.4925 74.067 24.7016 74.1243 24.8794 74.2319C25.0572 74.3394 25.1959 74.4923 25.2777 74.6712C25.3596 74.8501 25.3811 75.047 25.3394 75.237C25.2978 75.4269 25.1948 75.6014 25.0436 75.7384C24.8924 75.8754 24.6998 75.9686 24.4901 76.0064C24.2804 76.0441 24.0631 76.0247 23.8656 75.9505C23.6681 75.8763 23.4993 75.7507 23.3806 75.5896C23.2619 75.4285 23.1986 75.2391 23.1988 75.0455C23.199 74.786 23.3128 74.5373 23.5153 74.3539C23.7178 74.1705 23.9924 74.0674 24.2787 74.0672ZM36.9595 78.4545C37.7039 78.4548 38.4316 78.2551 39.0507 77.8807C39.6697 77.5063 40.1523 76.9739 40.4374 76.351C40.7224 75.7281 40.7972 75.0426 40.6521 74.3812C40.5071 73.7198 40.1488 73.1123 39.6226 72.6354C39.0963 72.1584 38.4258 71.8336 37.6958 71.702C36.9657 71.5703 36.209 71.6378 35.5213 71.8957C34.8335 72.1537 34.2457 72.5907 33.8321 73.1513C33.4185 73.712 33.1978 74.3711 33.1978 75.0455C33.1988 75.9491 33.5954 76.8155 34.3006 77.4545C35.0058 78.0936 35.962 78.4533 36.9595 78.4545ZM36.9595 74.0672C37.1733 74.0669 37.3825 74.1241 37.5604 74.2315C37.7383 74.339 37.8771 74.4918 37.9591 74.6707C38.0411 74.8496 38.0627 75.0465 38.0211 75.2365C37.9795 75.4266 37.8766 75.6011 37.7255 75.7381C37.5743 75.8752 37.3817 75.9685 37.172 76.0063C36.9622 76.0441 36.7448 76.0247 36.5473 75.9505C36.3498 75.8764 36.1809 75.7508 36.0622 75.5897C35.9435 75.4286 35.8802 75.2392 35.8803 75.0455C35.8806 74.7862 35.9943 74.5376 36.1966 74.3541C36.3989 74.1707 36.6733 74.0675 36.9595 74.0672ZM49.6411 78.4545C50.3854 78.4547 51.113 78.2549 51.732 77.8803C52.351 77.5058 52.8334 76.9734 53.1184 76.3505C53.4033 75.7276 53.478 75.0421 53.3328 74.3808C53.1877 73.7195 52.8294 73.1119 52.3031 72.6351C51.7768 72.1583 51.1063 71.8335 50.3763 71.7019C49.6463 71.5703 48.8896 71.6378 48.2019 71.8958C47.5142 72.1538 46.9264 72.5908 46.5129 73.1514C46.0993 73.712 45.8786 74.3712 45.8786 75.0455C45.8796 75.9492 46.2763 76.8157 46.9817 77.4548C47.687 78.0939 48.6434 78.4534 49.6411 78.4545ZM49.6411 74.0672C49.8549 74.067 50.0639 74.1243 50.2417 74.2319C50.4196 74.3394 50.5582 74.4923 50.6401 74.6712C50.722 74.8501 50.7435 75.047 50.7018 75.237C50.6601 75.4269 50.5572 75.6014 50.406 75.7384C50.2548 75.8754 50.0622 75.9686 49.8525 76.0064C49.6428 76.0441 49.4254 76.0247 49.2279 75.9505C49.0304 75.8763 48.8616 75.7507 48.743 75.5896C48.6243 75.4285 48.561 75.2391 48.5611 75.0455C48.5613 74.786 48.6752 74.5373 48.8777 74.3539C49.0801 74.1705 49.3547 74.0674 49.6411 74.0672Z" fill="#3A3A3A"/>
<path d="M89.4686 62.6607C89.5327 62.3719 89.567 62.0773 89.571 61.7815C89.5707 61.1185 89.4205 60.4641 89.1316 59.867C88.8427 59.27 88.4225 58.7457 87.9023 58.3332L79.9223 14.0227C79.9292 13.9182 79.9377 13.8144 79.9377 13.7038C79.9413 12.8711 79.7614 12.0478 79.4107 11.2922C79.06 10.5366 78.5471 9.86725 77.9083 9.33151C77.2696 8.79577 76.5206 8.40676 75.7144 8.19205C74.9083 7.97733 74.0647 7.94217 73.2434 8.08904C72.4221 8.23591 71.6432 8.56122 70.9619 9.04194C70.2806 9.52265 69.7136 10.147 69.3009 10.8708C68.8883 11.5945 68.6402 12.4 68.5742 13.2301C68.5082 14.0602 68.626 14.8946 68.9191 15.6742L52.6156 36.7144L49.1504 25.0093C48.826 23.9392 48.1664 23.0012 47.2684 22.333C46.3704 21.6647 45.2814 21.3015 44.1612 21.2966H30.6084C29.2303 21.2982 27.9092 21.8453 26.9347 22.8178C25.9603 23.7902 25.4122 25.1087 25.4105 26.484V39.3719H22.1378V34.7993C22.1378 34.4426 21.9959 34.1005 21.7431 33.8483C21.4904 33.5961 21.1477 33.4544 20.7902 33.4544H7.50691C7.14951 33.4544 6.80674 33.5961 6.55402 33.8483C6.3013 34.1005 6.15933 34.4426 6.15933 34.7993V39.3734C4.7881 39.3848 3.47682 39.9359 2.51065 40.9071C1.54448 41.8782 1.00158 43.1908 1 44.5593V58.5999C1.00163 59.9752 1.54978 61.2937 2.52421 62.2662C3.49864 63.2387 4.81978 63.7857 6.19783 63.7873H13.5972L11.3949 66.4771H10.8066C8.6111 66.4771 6.50555 67.3475 4.95312 68.8968C3.40069 70.4462 2.52855 72.5475 2.52855 74.7386C2.52855 76.9296 3.40069 79.031 4.95312 80.5803C6.50555 82.1296 8.6111 83 10.8066 83H50.6396C52.8351 83 54.9407 82.1296 56.4931 80.5803C58.0455 79.031 58.9177 76.9296 58.9177 74.7386C58.9177 72.5475 58.0455 70.4462 56.4931 68.8968C54.9407 67.3475 52.8351 66.4771 50.6396 66.4771H50.0459L47.8474 63.7873H50.8221C52.2002 63.7857 53.5213 63.2387 54.4958 62.2662C55.4702 61.2937 56.0183 59.9752 56.02 58.5999V58.0182L72.0416 25.9507L80.9565 60.3713C80.8022 60.8255 80.7241 61.302 80.7254 61.7815C80.7315 62.3871 80.8625 62.9849 81.1105 63.5376L68.1736 77.9524C68.032 78.1103 67.9298 78.2994 67.8752 78.5042C67.8207 78.709 67.8155 78.9238 67.8599 79.131C67.9043 79.3382 67.9972 79.532 68.131 79.6966C68.2647 79.8612 68.4355 79.9919 68.6295 80.0781C71.5451 81.4367 74.7131 82.172 77.9302 82.2369C79.7009 82.2951 81.4652 81.9957 83.1171 81.3567C84.7691 80.7176 86.2746 79.7521 87.5434 78.5181C91.3359 74.6832 92.0536 68.6443 89.4686 62.6607ZM86.8758 61.7815C86.8751 62.1224 86.7731 62.4555 86.5829 62.7386C86.3926 63.0217 86.1226 63.2423 85.8068 63.3724C85.4911 63.5025 85.1438 63.5363 84.8088 63.4696C84.4739 63.403 84.1662 63.2387 83.9246 62.9977C83.6831 62.7566 83.5185 62.4495 83.4517 62.1152C83.3849 61.7809 83.4188 61.4343 83.5492 61.1192C83.6795 60.8041 83.9005 60.5346 84.1842 60.3448C84.4679 60.1549 84.8016 60.0532 85.1432 60.0524C85.3709 60.0519 85.5964 60.0963 85.8068 60.183C86.0173 60.2697 86.2085 60.397 86.3695 60.5577C86.5305 60.7184 86.6581 60.9092 86.745 61.1192C86.8319 61.3292 86.8763 61.5543 86.8758 61.7815ZM74.247 10.7143C75.0408 10.7163 75.8016 11.0319 76.3629 11.5921C76.9242 12.1523 77.2405 12.9115 77.2425 13.7038C77.2292 14.4918 76.9091 15.2436 76.35 15.8002C75.7908 16.3568 75.0366 16.6743 74.247 16.6856C73.4536 16.6856 72.6926 16.371 72.1316 15.8111C71.5706 15.2512 71.2554 14.4918 71.2554 13.6999C71.2554 12.9081 71.5706 12.1487 72.1316 11.5887C72.6926 11.0288 73.4536 10.7143 74.247 10.7143ZM44.1612 23.9864C44.7008 23.9888 45.2253 24.1637 45.658 24.4854C46.0906 24.8071 46.4086 25.2587 46.5653 25.7739L52.8682 47.0569H45.0468L38.7986 23.9864H44.1612ZM28.1057 26.484C28.1065 25.8219 28.3705 25.187 28.8396 24.7188C29.3088 24.2506 29.9449 23.9872 30.6084 23.9864H36.0064L42.2546 47.0569H36.6147L28.1057 40.0804V26.484ZM8.8545 36.1442H19.4427V39.3719H8.8545V36.1442ZM50.6396 69.1669C52.1203 69.1669 53.5403 69.7539 54.5873 70.7988C55.6343 71.8437 56.2225 73.2609 56.2225 74.7386C56.2225 76.2163 55.6343 77.6334 54.5873 78.6783C53.5403 79.7232 52.1203 80.3102 50.6396 80.3102H10.8066C9.3259 80.3102 7.90588 79.7232 6.8589 78.6783C5.81191 77.6334 5.22372 76.2163 5.22372 74.7386C5.22372 73.2609 5.81191 71.8437 6.8589 70.7988C7.90588 69.7539 9.3259 69.1669 10.8066 69.1669H50.6396ZM14.8755 66.4771L17.0786 63.7873H44.3684L46.5676 66.4771H14.8755ZM53.3248 53.9966H29.1376C28.7802 53.9966 28.4374 54.1383 28.1847 54.3905C27.932 54.6427 27.79 54.9848 27.79 55.3414C27.79 55.6981 27.932 56.0402 28.1847 56.2924C28.4374 56.5446 28.7802 56.6863 29.1376 56.6863H53.3248V58.5999C53.324 59.2621 53.06 59.8969 52.5909 60.3651C52.1217 60.8333 51.4856 61.0967 50.8221 61.0976H6.19783C5.53433 61.0967 4.89824 60.8333 4.42908 60.3651C3.95992 59.8969 3.69599 59.2621 3.69517 58.5999V44.5593C3.69599 43.8971 3.95992 43.2623 4.42908 42.7941C4.89824 42.3259 5.53433 42.0625 6.19783 42.0616H26.2745L35.2741 49.4393C35.515 49.6375 35.8174 49.7461 36.1296 49.7467H53.3248V53.9966ZM56.02 51.9908V48.4018C56.0107 48.2726 55.9921 48.1442 55.9645 48.0176L53.5558 39.9022L70.5285 17.9997C71.0963 18.4842 71.7519 18.8556 72.4597 19.0941L56.02 51.9908ZM73.8759 22.2841L75.3882 19.2539C75.419 19.2478 75.4467 19.2362 75.4768 19.2301C76.371 19.0318 77.2043 18.6217 77.9063 18.0343L84.9907 57.3657C84.3293 57.3966 83.6822 57.5691 83.0933 57.8714L73.8759 22.2841ZM85.6206 76.6275C82.4634 79.8153 77.2548 80.4109 71.4571 78.3183L82.8947 65.5803C83.6188 66.0054 84.449 66.2166 85.2887 66.1894C86.1284 66.1622 86.9432 65.8977 87.6382 65.4266C88.9911 69.7832 88.285 73.9408 85.6206 76.6275Z" stroke="#3A3A3A" stroke-width="0.5"/>
<path d="M7.83544 75.0455C7.83544 75.7196 8.05613 76.3786 8.46959 76.9391C8.88305 77.4997 9.47071 77.9365 10.1583 78.1945C10.8458 78.4524 11.6023 78.5199 12.3322 78.3883C13.0621 78.2567 13.7325 77.932 14.2586 77.4553C14.7848 76.9786 15.1431 76.3712 15.2882 75.71C15.4333 75.0488 15.3586 74.3634 15.0738 73.7406C14.7889 73.1178 14.3065 72.5856 13.6877 72.2111C13.0688 71.8367 12.3413 71.6369 11.5971 71.6371C10.5998 71.6383 9.64369 71.9979 8.93852 72.6368C8.23335 73.2758 7.83666 74.142 7.83544 75.0455ZM12.6771 75.0455C12.6771 75.2389 12.6137 75.4281 12.4951 75.589C12.3764 75.7498 12.2077 75.8752 12.0104 75.9493C11.8131 76.0233 11.5959 76.0427 11.3865 76.0049C11.177 75.9672 10.9846 75.874 10.8335 75.7372C10.6825 75.6004 10.5796 75.4261 10.538 75.2363C10.4963 75.0465 10.5177 74.8498 10.5994 74.6711C10.6812 74.4923 10.8196 74.3395 10.9972 74.232C11.1748 74.1245 11.3836 74.0672 11.5971 74.0672C11.8834 74.0675 12.1579 74.1707 12.3603 74.3541C12.5627 74.5375 12.6767 74.7861 12.6771 75.0455ZM24.2787 78.4545C25.023 78.4547 25.7507 78.2549 26.3697 77.8803C26.9886 77.5058 27.4711 76.9734 27.756 76.3505C28.041 75.7276 28.1156 75.0421 27.9705 74.3808C27.8254 73.7195 27.467 73.1119 26.9408 72.6351C26.4145 72.1583 25.7439 71.8335 25.0139 71.7019C24.2839 71.5703 23.5272 71.6378 22.8395 71.8958C22.1518 72.1538 21.5641 72.5908 21.1505 73.1514C20.737 73.712 20.5162 74.3712 20.5162 75.0455C20.5173 75.9492 20.914 76.8157 21.6193 77.4548C22.3247 78.0939 23.2811 78.4534 24.2787 78.4545ZM24.2787 74.0672C24.4925 74.067 24.7016 74.1243 24.8794 74.2319C25.0572 74.3394 25.1959 74.4923 25.2777 74.6712C25.3596 74.8501 25.3811 75.047 25.3394 75.237C25.2978 75.4269 25.1948 75.6014 25.0436 75.7384C24.8924 75.8754 24.6998 75.9686 24.4901 76.0064C24.2804 76.0441 24.0631 76.0247 23.8656 75.9505C23.6681 75.8763 23.4993 75.7507 23.3806 75.5896C23.2619 75.4285 23.1986 75.2391 23.1988 75.0455C23.199 74.786 23.3128 74.5373 23.5153 74.3539C23.7178 74.1705 23.9924 74.0674 24.2787 74.0672ZM36.9595 78.4545C37.7039 78.4548 38.4316 78.2551 39.0507 77.8807C39.6697 77.5063 40.1523 76.9739 40.4374 76.351C40.7224 75.7281 40.7972 75.0426 40.6521 74.3812C40.5071 73.7198 40.1488 73.1123 39.6226 72.6354C39.0963 72.1584 38.4258 71.8336 37.6958 71.702C36.9657 71.5703 36.209 71.6378 35.5213 71.8957C34.8335 72.1537 34.2457 72.5907 33.8321 73.1513C33.4185 73.712 33.1978 74.3711 33.1978 75.0455C33.1988 75.9491 33.5954 76.8155 34.3006 77.4545C35.0058 78.0936 35.962 78.4533 36.9595 78.4545ZM36.9595 74.0672C37.1733 74.0669 37.3825 74.1241 37.5604 74.2315C37.7383 74.339 37.8771 74.4918 37.9591 74.6707C38.0411 74.8496 38.0627 75.0465 38.0211 75.2365C37.9795 75.4266 37.8766 75.6011 37.7255 75.7381C37.5743 75.8752 37.3817 75.9685 37.172 76.0063C36.9622 76.0441 36.7448 76.0247 36.5473 75.9505C36.3498 75.8764 36.1809 75.7508 36.0622 75.5897C35.9435 75.4286 35.8802 75.2392 35.8803 75.0455C35.8806 74.7862 35.9943 74.5376 36.1966 74.3541C36.3989 74.1707 36.6733 74.0675 36.9595 74.0672ZM49.6411 78.4545C50.3854 78.4547 51.113 78.2549 51.732 77.8803C52.351 77.5058 52.8334 76.9734 53.1184 76.3505C53.4033 75.7276 53.478 75.0421 53.3328 74.3808C53.1877 73.7195 52.8294 73.1119 52.3031 72.6351C51.7768 72.1583 51.1063 71.8335 50.3763 71.7019C49.6463 71.5703 48.8896 71.6378 48.2019 71.8958C47.5142 72.1538 46.9264 72.5908 46.5129 73.1514C46.0993 73.712 45.8786 74.3712 45.8786 75.0455C45.8796 75.9492 46.2763 76.8157 46.9817 77.4548C47.687 78.0939 48.6434 78.4534 49.6411 78.4545ZM49.6411 74.0672C49.8549 74.067 50.0639 74.1243 50.2417 74.2319C50.4196 74.3394 50.5582 74.4923 50.6401 74.6712C50.722 74.8501 50.7435 75.047 50.7018 75.237C50.6601 75.4269 50.5572 75.6014 50.406 75.7384C50.2548 75.8754 50.0622 75.9686 49.8525 76.0064C49.6428 76.0441 49.4254 76.0247 49.2279 75.9505C49.0304 75.8763 48.8616 75.7507 48.743 75.5896C48.6243 75.4285 48.561 75.2391 48.5611 75.0455C48.5613 74.786 48.6752 74.5373 48.8777 74.3539C49.0801 74.1705 49.3547 74.0674 49.6411 74.0672Z" stroke="#3A3A3A" stroke-width="0.5"/>
</g>
</g>
<defs>
<linearGradient id="paint0_linear_135_1097" x1="103.536" y1="79.7464" x2="-3.02594" y2="25.9407" gradientUnits="userSpaceOnUse">
<stop stop-color="#F5E127"/>
<stop offset="1" stop-color="#F3C245"/>
</linearGradient>
</defs>
</svg>
