<svg width="90" height="90" viewBox="0 0 90 90" fill="none" xmlns="http://www.w3.org/2000/svg">
<path opacity="0.75" d="M38.2272 5.39177C59.3395 5.39177 83.5902 0.743946 89.1968 23.4662C94.8035 46.1884 70.3381 89.5669 38.2272 82.8536C8.15514 89.5669 -8.08086e-07 65.5132 -1.74309e-06 44.1227C-1.74309e-06 21 17.1149 5.39177 38.2272 5.39177Z" fill="url(#paint0_linear_135_850)"/>
<path d="M79.361 61.7923C77.479 58.6727 74.8407 56.5028 71.7315 55.517L62.9488 52.7323C62.6709 52.6438 62.3721 52.6441 62.0944 52.733L60.7066 50.6701C60.5066 50.3728 60.1987 50.1631 59.8468 50.0847C59.4949 50.0062 59.1261 50.0651 58.8169 50.249L58.1346 50.6545V48.6593C58.1344 48.4556 58.0888 48.2544 58.0011 48.0702C62.3748 44.2402 65.1674 38.4433 65.1674 31.9666V27.1232C67.1016 21.8387 67.7805 16.7418 67.1254 12.3693C66.3881 7.44733 63.9989 3.81482 60.2154 1.86133L60.205 1.85577L60.1838 1.84447C60.1717 1.83821 60.1592 1.83369 60.1471 1.82796C60.1215 1.81539 60.0955 1.80362 60.0691 1.79267C60.0503 1.78502 60.0312 1.77841 60.0122 1.77164C59.9885 1.76298 59.9645 1.75493 59.9403 1.74747C59.9187 1.74104 59.897 1.73583 59.8752 1.73044C59.8531 1.72505 59.831 1.71949 59.8084 1.71531C59.7845 1.71062 59.7605 1.70714 59.7365 1.70367C59.7156 1.70071 59.6949 1.69776 59.6738 1.69567C59.648 1.69342 59.6221 1.69185 59.5961 1.69098C59.5766 1.69028 59.5572 1.68924 59.5377 1.68924C59.5096 1.68924 59.4816 1.6908 59.4537 1.69254C59.4359 1.69359 59.4184 1.69428 59.4007 1.69619C59.3703 1.69939 59.3401 1.70362 59.31 1.70888C59.2979 1.7108 59.2859 1.71166 59.2738 1.71392C55.9964 2.33814 52.905 1.64179 49.9153 0.968545C45.1669 -0.100853 40.2603 -1.2031 35.1134 3.095C34.8325 3.07354 34.5509 3.06229 34.2692 3.06127C28.1879 3.06127 23.2236 7.81985 23.0471 13.7337C23.0416 13.7834 23.0388 13.8334 23.0387 13.8834C23.0387 13.924 23.0399 13.9651 23.0401 14.0059C23.0401 14.0235 23.0387 14.0407 23.0387 14.0582C23.0387 14.0746 23.0406 14.0906 23.0411 14.1067C23.0937 20.6046 25.4201 28.0145 25.8771 29.408V31.967C25.8771 38.4282 28.6568 44.2129 33.0126 48.0431C32.9161 48.2345 32.8659 48.4455 32.8658 48.6595V50.6547L32.1835 50.2491C31.8742 50.0654 31.5054 50.0066 31.1536 50.085C30.8017 50.1635 30.4939 50.373 30.2938 50.6703L28.9059 52.733C28.6282 52.6441 28.3293 52.6439 28.0514 52.7323L19.2685 55.517C16.1593 56.5028 13.521 58.6725 11.639 61.7923C9.93715 64.613 9 68.0113 9 71.3617V83.4359C9 86.5036 11.5188 88.9996 14.615 88.9996H41.2841L41.2887 89L41.2961 88.9996H49.7038L49.7111 89L49.7157 88.9996H76.385C79.481 88.9996 82 86.5038 82 83.4359V71.3617C82 68.0115 81.0627 64.613 79.361 61.7923ZM66.4344 67.1064C66.4475 67.2258 66.4291 67.3465 66.381 67.4567C66.3329 67.5669 66.2567 67.6629 66.1598 67.7351L61.5043 71.1948C61.3434 71.3144 61.2104 71.4668 61.1141 71.6418C61.0179 71.8167 60.9607 72.0101 60.9465 72.2089C60.9322 72.4076 60.9612 72.6071 61.0315 72.7938C61.1018 72.9804 61.2118 73.15 61.3539 73.2909L64.2773 76.1874C64.3953 76.3054 64.4667 76.4613 64.4786 76.627C64.4905 76.7927 64.4421 76.9571 64.3422 77.0904L57.4331 86.2184H51.7679L63.6533 56.1216C63.6824 56.0481 63.7024 55.9726 63.7182 55.8965L65.2311 56.3763L66.4344 67.1064ZM42.2464 86.2184L41.2587 83.7173C41.2592 83.7144 41.2603 83.7116 41.2608 83.7086L43.8479 70.8917C43.9302 70.8964 44.0128 70.8995 44.0963 70.8995H46.9039C46.9874 70.8995 47.07 70.8964 47.1523 70.8917L49.7394 83.7086C49.7399 83.7116 49.7409 83.7144 49.7415 83.7173L48.7538 86.2184H42.2464ZM33.5669 86.2184L26.658 77.0904C26.5579 76.9572 26.5094 76.7928 26.5213 76.6271C26.5332 76.4614 26.6047 76.3055 26.7227 76.1876L29.6461 73.2909C29.7882 73.1499 29.8981 72.9804 29.9683 72.7937C30.0386 72.6071 30.0676 72.4076 30.0533 72.2089C30.0391 72.0102 29.9819 71.8168 29.8857 71.6418C29.7895 71.4669 29.6565 71.3145 29.4957 71.1948L24.8402 67.7353C24.7433 67.663 24.6672 67.567 24.619 67.4568C24.5709 67.3465 24.5525 67.2258 24.5656 67.1064L25.7689 56.3763L27.2818 55.8965C27.2978 55.9726 27.3178 56.0481 27.3467 56.1216L39.2321 86.2184H33.5669ZM44.0961 62.5535H46.9039C47.6782 62.5535 48.3082 63.1777 48.3082 63.9448V66.7269C48.3082 67.4942 47.6782 68.1184 46.9039 68.1184H44.0963C43.3219 68.1184 42.692 67.4942 42.692 66.7269V63.9448C42.692 63.1777 43.3218 62.5535 44.0961 62.5535ZM51.6354 78.9212L49.7871 69.7641C49.8427 69.7123 49.8967 69.6589 49.9495 69.604L49.989 69.6627C50.2688 70.0801 50.639 70.4305 51.0725 70.6885C51.5061 70.9465 51.9922 71.1055 52.4956 71.154C52.9423 71.1987 53.3936 71.1553 53.8234 71.0263C54.2532 70.8972 54.6529 70.6851 54.9995 70.4022L51.6354 78.9212ZM41.011 69.6629L41.0505 69.6041C41.1031 69.6589 41.1573 69.7123 41.2129 69.7642L39.3646 78.9214L36.0003 70.4025C36.6096 70.8998 37.3746 71.1714 38.1639 71.1709C38.2769 71.1709 38.3906 71.1653 38.5043 71.1542C39.0076 71.1057 39.4938 70.9467 39.9274 70.6887C40.361 70.4308 40.7312 70.0803 41.011 69.6629ZM59.1133 53.3165L60.7729 55.7832L57.4797 64.1221C57.3554 64.1871 57.2417 64.2703 57.1424 64.3688L53.2636 68.2121C53.2003 68.2761 53.1231 68.325 53.038 68.3551C52.9529 68.3852 52.8619 68.3958 52.772 68.3861C52.6821 68.3779 52.5951 68.3497 52.5176 68.3036C52.4402 68.2576 52.3742 68.1948 52.3245 68.12L51.1149 66.3222V63.9446C51.1149 62.0226 49.796 60.4006 48.008 59.9185L59.1133 53.3165ZM25.8464 14.0242C25.8655 9.50982 29.6361 5.84289 34.269 5.84289C35.3962 5.84289 36.4893 6.056 37.518 6.47597C37.6884 6.54558 37.871 6.58124 38.0553 6.58092C38.2396 6.5806 38.422 6.5443 38.5922 6.47409C38.7623 6.40389 38.9168 6.30116 39.0469 6.17177C39.177 6.04238 39.28 5.88886 39.3502 5.71999C39.4821 5.40264 39.4909 5.04816 39.375 4.72475C39.259 4.40135 39.0264 4.13186 38.722 3.96814C42.1148 2.06715 45.3611 2.79566 49.2929 3.68098C52.2731 4.35213 55.6338 5.10551 59.29 4.53152C62.7335 6.50779 63.9445 10.08 64.3487 12.7783C64.816 15.8987 64.4815 19.6001 63.4128 23.4321L60.7615 18.7657C60.6231 18.5223 60.4139 18.3258 60.1612 18.2018C59.9085 18.0778 59.624 18.0321 59.3447 18.0706C59.1893 18.0923 43.6588 20.1584 31.9975 15.3809C31.2813 15.0871 30.4606 15.425 30.1643 16.1346C30.0939 16.3034 30.0577 16.4842 30.0578 16.6668C30.0579 16.8494 30.0943 17.0302 30.165 17.1989C30.2356 17.3676 30.3391 17.5208 30.4695 17.6498C30.5999 17.7789 30.7546 17.8812 30.925 17.951C41.7192 22.373 55.0909 21.3378 58.7754 20.9398L62.36 27.2491V27.7951C62.3553 27.7951 62.3507 27.7944 62.346 27.7944H49.7116C49.3039 27.7941 48.901 27.8819 48.531 28.0518C48.161 28.2217 47.833 28.4696 47.5696 28.7781C47.4625 28.9052 47.367 29.0416 47.2844 29.1855H43.7149C43.6322 29.0416 43.5368 28.9052 43.4297 28.7781C43.1664 28.4695 42.8383 28.2217 42.4683 28.0518C42.0984 27.8818 41.6954 27.794 41.2876 27.7944H29.0503C29.9576 24.2853 32.2417 21.8211 32.2686 21.7924C32.395 21.6595 32.4937 21.5032 32.5591 21.3324C32.6245 21.1617 32.6553 20.9799 32.6498 20.7973C32.6443 20.6148 32.6026 20.4351 32.527 20.2685C32.4514 20.102 32.3435 19.9518 32.2093 19.8266C32.0752 19.7013 31.9174 19.6035 31.7451 19.5386C31.5728 19.4738 31.3893 19.4432 31.205 19.4487C31.0208 19.4541 30.8394 19.4955 30.6713 19.5704C30.5032 19.6453 30.3517 19.7523 30.2253 19.8853C30.1183 19.9978 28.5631 21.6613 27.3425 24.2867C26.6253 21.387 25.8664 17.5098 25.8464 14.0242ZM58.0871 30.5762L56.8947 33.2542C56.8914 33.2616 56.8881 33.269 56.885 33.2764C56.4701 34.2539 55.7033 34.7496 54.6055 34.7496H51.8372C51.5045 34.7505 51.1824 34.634 50.9286 34.421C50.6748 34.208 50.5058 33.9123 50.452 33.5871C50.4463 33.5533 50.4393 33.5197 50.4311 33.4864L49.7153 30.5758L58.0871 30.5762ZM41.2847 30.5762L40.5689 33.4862C40.5607 33.5195 40.5538 33.5531 40.548 33.5869C40.4942 33.9122 40.3252 34.2078 40.0714 34.4208C39.8176 34.6338 39.4955 34.7503 39.1628 34.7495H36.3945C35.2969 34.7495 34.5299 34.2537 34.115 33.2763L34.1053 33.254L32.9128 30.5755L41.2847 30.5762ZM28.684 31.9672V30.5757H30.0622C30.0622 30.7279 30.0708 30.8807 30.0964 31.0335C30.1157 31.1481 30.1494 31.2598 30.1968 31.3662L31.5327 34.3665C32.3914 36.3776 34.1627 37.5309 36.3945 37.5309H39.1628C40.1506 37.5335 41.1076 37.1909 41.8656 36.5633C42.6236 35.9358 43.134 35.0635 43.307 34.0999L43.8316 31.9668H47.1684L47.693 34.0999C47.8659 35.0635 48.3762 35.9358 49.1342 36.5634C49.8922 37.1909 50.8492 37.5335 51.837 37.5309H54.6053C56.8373 37.5309 58.6084 36.3779 59.467 34.3667L60.8031 31.3662C60.8504 31.2598 60.8841 31.1481 60.9034 31.0335C60.929 30.8809 60.9376 30.7279 60.9376 30.5757H62.3462C62.3509 30.5757 62.3555 30.575 62.3602 30.575V31.9672C62.3602 41.9387 54.8067 50.0511 45.522 50.0511C36.2373 50.0511 28.684 41.9387 28.684 31.9672ZM35.6726 50.0145C38.5701 51.8052 41.9352 52.8324 45.5222 52.8324C49.0908 52.8324 52.4401 51.8162 55.3275 50.0423V52.3236L45.5001 58.1663L35.6726 52.3236V50.0145ZM31.8868 53.3165L42.9918 59.9189C41.2038 60.4009 39.8849 62.0229 39.8849 63.945V66.3226L38.6753 68.1203C38.6257 68.1952 38.5596 68.258 38.4821 68.304C38.4046 68.3501 38.3176 68.3783 38.2276 68.3865C38.1377 68.3962 38.0468 68.3855 37.9616 68.3553C37.8765 68.3252 37.7994 68.2763 37.7361 68.2123L33.8575 64.3691C33.7581 64.2706 33.6444 64.1874 33.5201 64.1224L30.2269 55.7835L31.8868 53.3165ZM11.8069 83.4359V71.3617C11.8069 64.4298 15.9909 59.4765 20.1239 58.166L22.8406 57.3047L21.7759 66.7991C21.6396 68.0148 22.1683 69.2261 23.156 69.9603L26.5171 72.4579L24.7379 74.221C23.513 75.4347 23.373 77.3859 24.4125 78.7592L30.0585 86.2184H14.6152C13.0667 86.2184 11.8069 84.9701 11.8069 83.4359ZM79.1931 83.4359C79.1931 84.9701 77.9333 86.2184 76.385 86.2184H60.9417L66.5879 78.759C67.6272 77.3858 67.4872 75.4347 66.2623 74.2209L64.4831 72.4579L67.844 69.9603C68.8317 69.2262 69.3606 68.015 69.2243 66.7991L68.1596 57.3047L70.8761 58.166C75.0091 59.4763 79.1931 64.4298 79.1931 71.3617V83.4359Z" fill="#3A3A3A"/>
<defs>
<linearGradient id="paint0_linear_135_850" x1="-12.5357" y1="74.6893" x2="89.6103" y2="17.8902" gradientUnits="userSpaceOnUse">
<stop stop-color="#F5E127"/>
<stop offset="1" stop-color="#F3C245"/>
</linearGradient>
</defs>
</svg>
