<svg width="90" height="90" viewBox="0 0 90 90" fill="none" xmlns="http://www.w3.org/2000/svg">
<path opacity="0.75" d="M51.7556 83.606C30.6503 83.606 6.4077 88.2804 0.802905 65.4283C-4.80189 42.5763 19.6554 -1.04994 51.7556 5.70174C92.4693 22.1487 89.9701 23.1412 89.9701 44.6539C89.9701 67.9086 72.8609 83.606 51.7556 83.606Z" fill="url(#paint0_linear_135_796)"/>
<path d="M40.4593 15H16.2037C16.0457 14.9999 15.8891 15.0309 15.743 15.091C15.5969 15.1512 15.4642 15.2394 15.3524 15.3506C15.2406 15.4619 15.152 15.5939 15.0915 15.7392C15.031 15.8846 14.9999 16.0403 15 16.1976C15 16.5153 15.1268 16.8199 15.3526 17.0445C15.5783 17.2691 15.8845 17.3953 16.2037 17.3953H40.4593C40.7785 17.3953 41.0847 17.2691 41.3105 17.0445C41.5362 16.8199 41.663 16.5153 41.663 16.1976C41.663 15.5357 41.1246 15 40.4593 15ZM40.4593 22.8845H16.2037C15.5385 22.8845 15 23.4202 15 24.0821C15 24.744 15.5385 25.2797 16.2037 25.2797H40.4593C41.1246 25.2797 41.663 24.744 41.663 24.0821C41.663 23.4202 41.1246 22.8845 40.4593 22.8845ZM82.4688 78.9745H81.8734V73.7585C81.8734 69.2786 79.3831 65.2278 75.3743 63.1874L72.874 61.9144L75.3743 60.6412C79.3831 58.6009 81.8732 54.5502 81.8732 50.0702V44.8549H82.4688C84.4157 44.8549 85.9998 43.2786 85.9998 41.3418C85.9998 39.405 84.4157 37.8287 82.4688 37.8287H53.8999C51.9525 37.8287 50.3689 39.405 50.3689 41.3418C50.3689 43.2786 51.9525 44.8549 53.8999 44.8549H54.4955V50.0702C54.4955 54.5508 56.9858 58.6009 60.9944 60.6414L63.4947 61.9144L60.9944 63.1875C56.9858 65.2278 54.4955 69.2786 54.4955 73.7585V78.9745H53.9C51.9525 78.9745 50.369 80.5501 50.369 82.4869C50.369 84.4244 51.9525 86 53.9 86H82.469C84.4156 86 86 84.4244 86 82.4869C86 80.5501 84.4156 78.9745 82.469 78.9745H82.4688ZM52.7764 41.3418C52.7764 40.7254 53.2803 40.224 53.8999 40.224H82.4688C83.0884 40.224 83.5923 40.7254 83.5923 41.3418C83.5923 41.9582 83.0884 42.4596 82.4688 42.4596H53.8999C53.2799 42.4596 52.7764 41.9582 52.7764 41.3418ZM79.4659 44.8549V50.0702C79.4659 51.3595 79.2075 52.6039 78.7273 53.7449H57.6408C57.1523 52.5808 56.9015 51.3317 56.903 50.0702V44.8549H79.4659ZM62.091 58.5092C60.9451 57.9278 59.9292 57.122 59.1042 56.1402H77.2645C76.4395 57.122 75.4236 57.9278 74.2777 58.5092L71.4552 59.9458C71.107 60.1223 70.8118 60.3871 70.5994 60.7135H65.7687C65.5563 60.3871 65.2611 60.1223 64.9129 59.9458L62.091 58.5092ZM62.091 65.3195L64.9129 63.883C65.2634 63.7052 65.5603 63.438 65.7732 63.1088H70.5951C70.808 63.438 71.1048 63.7052 71.4553 63.883L74.2777 65.3195C76.4138 66.4068 78.0094 68.2088 78.8343 70.3502H57.5339C58.3595 68.2088 59.9552 66.4068 62.0911 65.3195H62.091ZM56.903 73.7585C56.903 73.4173 56.9211 73.0792 56.9563 72.7455H79.4118C79.4476 73.0792 79.4657 73.4173 79.4657 73.7585V78.9745H56.903V73.7585ZM82.469 83.6047H53.9C53.2805 83.6047 52.7765 83.1033 52.7765 82.4869C52.7765 81.8705 53.2805 81.3698 53.9 81.3698H82.469C83.0884 81.3698 83.5925 81.8707 83.5925 82.4869C83.5925 83.1032 83.0884 83.6047 82.469 83.6047Z" fill="#3A3A3A" stroke="#3A3A3A" stroke-width="0.5"/>
<path d="M45.8692 82.627H12.4395C10.7646 82.627 9.40176 81.2803 9.40176 79.6254V9.37463C9.40176 7.71967 10.7646 6.37305 12.4395 6.37305H50.9057V20.492C50.9057 22.891 52.8815 24.8433 55.3094 24.8433H69.5985V32.9418C69.5985 33.2565 69.725 33.5583 69.9502 33.7808C70.1754 34.0034 70.4808 34.1284 70.7993 34.1284C71.1178 34.1284 71.4232 34.0034 71.6484 33.7808C71.8736 33.5583 72.0001 33.2565 72.0001 32.9418V23.6567C72.0001 23.342 71.8736 23.0402 71.6485 22.8175L52.9558 4.34726C52.8443 4.23709 52.7119 4.14972 52.5661 4.09014C52.4204 4.03055 52.2643 3.99992 52.1066 4H12.4395C9.44067 4 7.00012 6.4107 7.00012 9.37463V79.6254C7.00012 82.5893 9.44051 85 12.4395 85H45.8692C46.5327 85 47.07 84.4692 47.07 83.8135C47.07 83.4988 46.9435 83.197 46.7183 82.9745C46.4931 82.752 46.1877 82.627 45.8692 82.627ZM53.3074 20.492V8.05095L67.9004 22.4702H55.3094C54.2054 22.4702 53.3074 21.5827 53.3074 20.492Z" fill="#3A3A3A" stroke="#3A3A3A"/>
<path d="M25.2272 61.6498L25.1826 53.1722M31.5158 52.7551L31.576 64.2737C31.5797 64.9149 31.6663 65.4414 30.9656 65.4595L30.2117 65.4767C29.6571 65.4899 29.3552 65.8332 29.358 66.3218L29.3706 68.7078C29.3734 69.3861 29.9688 69.3222 30.1148 69.3176L30.5265 69.3077C31.3592 69.2775 31.6054 69.9801 31.6071 70.1659L31.6229 73.0967C31.641 77.0925 25.3049 76.7914 25.2848 73.2494L25.2274 60.419M22.2332 33.1014L32.4567 33.0002C34.8316 32.9754 36.8129 34.8597 36.8604 37.187L36.9981 44.1573C37.1012 49.2393 32.9412 53.437 27.7547 53.49C22.5682 53.5432 18.2403 49.4263 18.1386 44.3471L18.0009 37.3768C17.9533 35.0495 19.8581 33.1262 22.2332 33.1014ZM25.597 38.0393L30.0448 38.0518C31.3744 38.0578 32.4968 39.1527 32.5438 40.4917C32.5866 41.8288 31.5351 42.9189 30.2069 42.9157L25.7577 42.9002C24.4296 42.8971 23.3058 41.7994 23.2629 40.4621C23.216 39.1233 24.2674 38.0331 25.597 38.0393Z" stroke="#3A3A3A" stroke-width="2.75" stroke-miterlimit="10" stroke-linecap="round" stroke-linejoin="round"/>
<defs>
<linearGradient id="paint0_linear_135_796" x1="102.536" y1="14.3107" x2="0.389706" y2="71.1098" gradientUnits="userSpaceOnUse">
<stop stop-color="#F5E127"/>
<stop offset="1" stop-color="#F3C245"/>
</linearGradient>
</defs>
</svg>
