<svg width="96" height="91" viewBox="0 0 96 91" fill="none" xmlns="http://www.w3.org/2000/svg">
<path opacity="0.75" d="M34.4248 89C48.5 92.5 72.342 89 90.4992 65.2615C108.656 41.523 79.3267 21.1507 39.6406 6.43816C-0.0455317 -8.27436 -8.40907e-07 27.6973 -1.76703e-06 48.8846C-1.75964e-06 71.7877 20.3496 85.5 34.4248 89Z" fill="url(#paint0_linear_135_1111)"/>
<path d="M77.4762 85H16.5238C13.9989 84.997 11.5782 83.9926 9.7928 82.2072C8.00739 80.4218 7.00302 78.0011 7 75.4762V21.5715C7.00302 19.0466 8.00739 16.6259 9.7928 14.8405C11.5782 13.0551 13.9989 12.0507 16.5238 12.0477H77.4762C80.0011 12.0507 82.4218 13.0551 84.2072 14.8405C85.9926 16.6259 86.997 19.0466 87 21.5715V75.4762C86.997 78.0011 85.9926 80.4218 84.2072 82.2072C82.4218 83.9926 80.0011 84.997 77.4762 85ZM16.5238 15.8572C15.0083 15.8572 13.5548 16.4593 12.4832 17.5309C11.4116 18.6025 10.8095 20.056 10.8095 21.5715V75.4762C10.8095 76.9917 11.4116 78.4452 12.4832 79.5168C13.5548 80.5884 15.0083 81.1905 16.5238 81.1905H77.4762C78.9917 81.1905 80.4452 80.5884 81.5168 79.5168C82.5884 78.4452 83.1905 76.9917 83.1905 75.4762V21.5715C83.1905 20.056 82.5884 18.6025 81.5168 17.5309C80.4452 16.4593 78.9917 15.8572 77.4762 15.8572H16.5238Z" fill="#3A3A3A"/>
<path d="M77.4762 31.3847H8.90476C8.39959 31.3847 7.9151 31.1841 7.55789 30.8268C7.20068 30.4696 7 29.9851 7 29.48C7 28.9748 7.20068 28.4903 7.55789 28.1331C7.9151 27.7759 8.39959 27.5752 8.90476 27.5752H77.4762C77.9814 27.5752 78.4659 27.7759 78.8231 28.1331C79.1803 28.4903 79.381 28.9748 79.381 29.48C79.381 29.9851 79.1803 30.4696 78.8231 30.8268C78.4659 31.1841 77.9814 31.3847 77.4762 31.3847ZM66.7524 22.9181C64.4732 22.8185 62.3259 21.8212 60.7796 20.1439C59.2332 18.4665 58.4134 16.2455 58.4991 13.9657C58.4097 11.6837 59.228 9.45917 60.7747 7.77893C62.3215 6.09868 64.4708 5.0995 66.7524 5C69.0304 5.10148 71.1759 6.0996 72.7209 7.77666C74.266 9.45373 75.0852 11.6737 75 13.9524C75 14.4575 74.7993 14.942 74.4421 15.2992C74.0849 15.6565 73.6004 15.8571 73.0952 15.8571C72.5901 15.8571 72.1056 15.6565 71.7484 15.2992C71.3912 14.942 71.1905 14.4575 71.1905 13.9524C71.2737 12.6842 70.8549 11.4342 70.0246 10.4721C69.1944 9.50992 68.0191 8.91278 66.7524 8.80952C65.4847 8.91136 64.308 9.50788 63.4765 10.4702C62.6449 11.4325 62.2254 12.6833 62.3086 13.9524C62.2254 15.2214 62.6449 16.4722 63.4765 17.4346C64.308 18.3969 65.4847 18.9934 66.7524 19.0952C67.2576 19.0952 67.742 19.2959 68.0993 19.6531C68.4565 20.0103 68.6571 20.4948 68.6571 21C68.6571 21.5052 68.4565 21.9896 68.0993 22.3469C67.742 22.7041 67.2576 22.9047 66.7524 22.9047V22.9181ZM47 22.9181C44.7208 22.8185 42.5736 21.8212 41.0272 20.1439C39.4808 18.4665 38.661 16.2455 38.7467 13.9657C38.6574 11.6837 39.4756 9.45917 41.0223 7.77893C42.5691 6.09868 44.7184 5.0995 47 5C49.2792 5.09953 51.4265 6.09686 52.9728 7.77419C54.5192 9.45153 55.339 11.6726 55.2533 13.9524C55.2533 14.4575 55.0527 14.942 54.6954 15.2992C54.3382 15.6565 53.8538 15.8571 53.3486 15.8571C52.8434 15.8571 52.3589 15.6565 52.0017 15.2992C51.6445 14.942 51.4438 14.4575 51.4438 13.9524C51.5269 12.6833 51.1074 11.4325 50.2759 10.4702C49.4444 9.50788 48.2677 8.91136 47 8.80952C45.7323 8.91136 44.5556 9.50788 43.7241 10.4702C42.8926 11.4325 42.4731 12.6833 42.5562 13.9524C42.4694 15.2236 42.8873 16.4779 43.7191 17.4431C44.551 18.4083 45.7298 19.0067 47 19.1086C47.5052 19.1086 47.9897 19.3092 48.3469 19.6664C48.7041 20.0237 48.9048 20.5081 48.9048 21.0133C48.9048 21.5185 48.7041 22.003 48.3469 22.3602C47.9897 22.7174 47.5052 22.9181 47 22.9181ZM27.2476 22.9181C24.967 22.8171 22.8192 21.8173 21.2736 20.1372C19.7281 18.4571 18.9107 16.2335 19 13.9524C18.9148 11.6737 19.734 9.45373 21.2791 7.77666C22.8241 6.0996 24.9696 5.10148 27.2476 5C29.5268 5.09953 31.6741 6.09686 33.2204 7.77419C34.7668 9.45153 35.5867 11.6726 35.501 13.9524C35.501 14.4575 35.3003 14.942 34.9431 15.2992C34.5859 15.6565 34.1014 15.8571 33.5962 15.8571C33.091 15.8571 32.6065 15.6565 32.2493 15.2992C31.8921 14.942 31.6914 14.4575 31.6914 13.9524C31.7746 12.6833 31.3551 11.4325 30.5236 10.4702C29.692 9.50788 28.5153 8.91136 27.2476 8.80952C25.9809 8.91278 24.8057 9.50992 23.9754 10.4721C23.1451 11.4342 22.7263 12.6842 22.8095 13.9524C22.7264 15.2217 23.1462 16.4728 23.9781 17.4352C24.81 18.3975 25.9872 18.9939 27.2552 19.0952C27.7604 19.0952 28.2449 19.2959 28.6021 19.6531C28.9593 20.0103 29.16 20.4948 29.16 21C29.16 21.5052 28.9593 21.9896 28.6021 22.3469C28.2449 22.7041 27.7604 22.9047 27.2552 22.9047L27.2476 22.9181Z" fill="#3A3A3A"/>
<path d="M69.8571 73.5714H24.1429C22.6273 73.5714 21.1739 72.9693 20.1022 71.8977C19.0306 70.826 18.4286 69.3726 18.4286 67.8571V45C18.4286 43.4844 19.0306 42.031 20.1022 40.9594C21.1739 39.8877 22.6273 39.2857 24.1429 39.2857H69.8571C71.3727 39.2857 72.8261 39.8877 73.8978 40.9594C74.9694 42.031 75.5714 43.4844 75.5714 45V67.8571C75.5714 69.3726 74.9694 70.826 73.8978 71.8977C72.8261 72.9693 71.3727 73.5714 69.8571 73.5714ZM24.1429 43.0952C23.6377 43.0952 23.1532 43.2959 22.796 43.6531C22.4388 44.0103 22.2381 44.4948 22.2381 45V67.8571C22.2381 68.3622 22.4388 68.8467 22.796 69.2039C23.1532 69.5612 23.6377 69.7618 24.1429 69.7618H69.8571C70.3623 69.7618 70.8468 69.5612 71.204 69.2039C71.5612 68.8467 71.7619 68.3622 71.7619 67.8571V45C71.7619 44.4948 71.5612 44.0103 71.204 43.6531C70.8468 43.2959 70.3623 43.0952 69.8571 43.0952H24.1429Z" fill="#3A3A3A"/>
<path d="M55.5714 73.5714H38.4286C37.9234 73.5714 37.4389 73.3707 37.0817 73.0135C36.7245 72.6562 36.5238 72.1718 36.5238 71.6666V41.1904C36.5238 40.6853 36.7245 40.2008 37.0817 39.8436C37.4389 39.4864 37.9234 39.2857 38.4286 39.2857H55.5714C56.0766 39.2857 56.5611 39.4864 56.9183 39.8436C57.2755 40.2008 57.4762 40.6853 57.4762 41.1904V71.6666C57.4762 72.1718 57.2755 72.6562 56.9183 73.0135C56.5611 73.3707 56.0766 73.5714 55.5714 73.5714ZM40.3333 69.7618H53.6667V43.0952H40.3333V69.7618Z" fill="#3A3A3A"/>
<path d="M73.6667 58.3333H20.3333C19.8282 58.3333 19.3437 58.1326 18.9865 57.7754C18.6293 57.4182 18.4286 56.9337 18.4286 56.4285C18.4286 55.9233 18.6293 55.4389 18.9865 55.0816C19.3437 54.7244 19.8282 54.5238 20.3333 54.5238H73.6667C74.1718 54.5238 74.6563 54.7244 75.0135 55.0816C75.3708 55.4389 75.5714 55.9233 75.5714 56.4285C75.5714 56.9337 75.3708 57.4182 75.0135 57.7754C74.6563 58.1326 74.1718 58.3333 73.6667 58.3333Z" fill="#3A3A3A"/>
<defs>
<linearGradient id="paint0_linear_135_1111" x1="-13.3714" y1="13.272" x2="97.2886" y2="72.7652" gradientUnits="userSpaceOnUse">
<stop stop-color="#F5E127"/>
<stop offset="1" stop-color="#F3C245"/>
</linearGradient>
</defs>
</svg>
