<svg width="96" height="90" viewBox="0 0 96 90" fill="none" xmlns="http://www.w3.org/2000/svg">
<path opacity="0.75" d="M34.4248 3.21985C43.5 2.30295 72.342 3.21988 90.4992 26.8977C108.656 50.5754 79.3267 70.8957 39.6406 85.5706C-0.0455317 100.246 -8.38147e-07 64.3658 -1.76191e-06 43.2327C-1.75195e-06 20.3882 9.9782 5.68978 34.4248 3.21985Z" fill="url(#paint0_linear_135_497)"/>
<path d="M78.0012 20.5312C78.8642 20.5312 79.5637 19.8317 79.5637 18.9688V10.6875C79.5637 8.10281 77.4608 6 74.8761 6H12.6876C10.1028 6 8 8.10281 8 10.6875V81.3125C8 83.8972 10.1028 86 12.6876 86H74.8761C77.4608 86 79.5637 83.8972 79.5637 81.3125V76.9375C79.5637 76.0745 78.8642 75.375 78.0012 75.375C77.1382 75.375 76.4386 76.0745 76.4386 76.9375V81.3125C76.4386 82.1741 75.7377 82.875 74.8761 82.875H12.6876C11.826 82.875 11.1251 82.1741 11.1251 81.3125V10.6875C11.1251 9.82594 11.826 9.125 12.6876 9.125H74.8761C75.7377 9.125 76.4386 9.82594 76.4386 10.6875V18.9688C76.4386 19.8317 77.1382 20.5312 78.0012 20.5312Z" fill="#3A3A3A"/>
<path d="M70.502 13.5H17.0617C16.1987 13.5 15.4992 14.1995 15.4992 15.0625V67.7188C15.4992 68.5817 16.1987 69.2812 17.0617 69.2812C17.9247 69.2812 18.6242 68.5817 18.6242 67.7188V16.625H68.9395V19.125C68.9395 19.988 69.6392 20.6875 70.502 20.6875C71.365 20.6875 72.0645 19.988 72.0645 19.125V15.0625C72.0645 14.1995 71.365 13.5 70.502 13.5ZM18.1658 52.3953C17.8723 52.1031 17.4753 51.9386 17.0611 51.9375C16.6501 51.9375 16.247 52.1047 15.9564 52.3953C15.6658 52.6859 15.4986 53.0891 15.4986 53.5C15.4986 53.9109 15.6658 54.3141 15.9564 54.6047C16.247 54.8953 16.6501 55.0625 17.0611 55.0625C17.4736 55.0625 17.8752 54.8953 18.1658 54.6047C18.458 54.3141 18.6236 53.9109 18.6236 53.5C18.6236 53.0891 18.458 52.6859 18.1658 52.3953ZM70.502 71.9375C69.639 71.9375 68.9395 72.637 68.9395 73.5V75.375H18.6242V59.5156C18.6242 58.6527 17.9247 57.9531 17.0617 57.9531C16.1987 57.9531 15.4992 58.6527 15.4992 59.5156V76.9375C15.4992 77.8005 16.1987 78.5 17.0617 78.5H70.502C71.365 78.5 72.0645 77.8005 72.0645 76.9375V73.5C72.0645 72.637 71.365 71.9375 70.502 71.9375Z" fill="#3A3A3A"/>
<path d="M56.4233 61.2087C55.8131 60.5984 54.8239 60.5984 54.2136 61.2086L51.1254 64.2969L49.2058 62.3772C47.9938 61.1653 46.022 61.1653 44.81 62.3772L43.5609 63.6263C42.9507 64.2364 42.9507 65.2258 43.5609 65.8361C44.1711 66.4462 45.1605 66.4462 45.7708 65.8361L47.008 64.5989L48.9276 66.5186C49.5335 67.1245 50.3295 67.4275 51.1254 67.4275C51.9214 67.4275 52.7173 67.1245 53.3233 66.5186L56.4233 63.4186C57.0335 62.8084 57.0335 61.8191 56.4233 61.2087Z" fill="#3A3A3A"/>
<path d="M87.2819 38.7784C87.6228 38.2457 87.8489 37.6478 87.946 37.0229C88.0431 36.3979 88.009 35.7596 87.8459 35.1486C87.6816 34.5379 87.392 33.9681 86.9954 33.4754C86.5989 32.9828 86.1041 32.5781 85.5425 32.2872C85.3014 32.162 85.1011 31.9705 84.9652 31.7352C84.8293 31.4999 84.7636 31.2306 84.7758 30.9592C84.8046 30.3275 84.7015 29.6966 84.4731 29.1069C84.2448 28.5171 83.8961 27.9814 83.4494 27.5337C83.0019 27.0868 82.4661 26.7381 81.8764 26.5097C81.2866 26.2813 80.6557 26.1783 80.0239 26.2073C79.7523 26.2201 79.4829 26.1546 79.2475 26.0187C79.012 25.8828 78.8206 25.6821 78.6959 25.4406C78.4049 24.8791 78.0002 24.3843 77.5076 23.9878C77.0149 23.5912 76.4451 23.3016 75.8344 23.1373C75.2234 22.9742 74.5851 22.94 73.9602 23.0371C73.3352 23.1342 72.7374 23.3604 72.2047 23.7013C71.9757 23.8475 71.7097 23.9253 71.438 23.9253C71.1663 23.9253 70.9003 23.8475 70.6714 23.7013C70.1386 23.3604 69.5408 23.1342 68.9159 23.0371C68.2909 22.9401 67.6526 22.9742 67.0416 23.1373C66.4309 23.3016 65.8611 23.5912 65.3684 23.9878C64.8758 24.3843 64.4711 24.8791 64.1802 25.4406C64.0547 25.6816 63.8632 25.8817 63.6279 26.0175C63.3927 26.1534 63.1235 26.2192 62.8522 26.2073C62.2204 26.1784 61.5896 26.2815 60.9998 26.5098C60.41 26.7382 59.8743 27.0869 59.4268 27.5337C58.98 27.9813 58.6313 28.517 58.4029 29.1068C58.1746 29.6965 58.0715 30.3273 58.1002 30.9591C58.1124 31.2305 58.0467 31.4998 57.9108 31.7351C57.775 31.9704 57.5746 32.162 57.3335 32.2872C56.772 32.5781 56.2772 32.9828 55.8806 33.4754C55.4841 33.9681 55.1944 34.5379 55.0302 35.1486C54.8746 35.7316 54.8368 36.3397 54.9191 36.9375H27.653C26.79 36.9375 26.0905 37.637 26.0905 38.5C26.0905 39.363 26.79 40.0625 27.653 40.0625H55.7174C55.6846 40.1495 55.6432 40.233 55.5939 40.3119C55.2531 40.8446 55.027 41.4425 54.9299 42.0674C54.8328 42.6924 54.8669 43.3307 55.03 43.9417C55.0753 44.1109 55.1311 44.2762 55.1952 44.4375H27.6525C26.7895 44.4375 26.09 45.137 26.09 46C26.09 46.863 26.7895 47.5625 27.6525 47.5625H58.0069C58.0766 47.7436 58.1082 47.9372 58.0997 48.1311C58.071 48.7629 58.174 49.3937 58.4024 49.9835C58.6308 50.5732 58.9795 51.109 59.4263 51.5566C59.8738 52.0035 60.4095 52.3523 60.9993 52.5807C61.589 52.8091 62.2199 52.912 62.8517 52.883C63.4037 52.8559 63.9256 53.1581 64.1797 53.6497C64.3662 54.0097 64.6001 54.3431 64.8752 54.6409V69.2336C64.8752 69.5423 64.9666 69.8441 65.138 70.1008C65.3093 70.3576 65.5529 70.5579 65.8379 70.6764C66.123 70.7949 66.4367 70.8263 66.7396 70.7666C67.0425 70.707 67.3209 70.559 67.5397 70.3412L71.4378 66.4636L75.3358 70.3412C75.5546 70.559 75.8331 70.7071 76.136 70.7667C76.4389 70.8263 76.7527 70.7948 77.0377 70.6763C77.3228 70.5577 77.5663 70.3575 77.7376 70.1007C77.909 69.8439 78.0004 69.5421 78.0004 69.2334V54.6408C78.2755 54.343 78.5094 54.0096 78.6959 53.6495C78.8212 53.4085 79.0128 53.2083 79.248 53.0725C79.4833 52.9366 79.7525 52.8708 80.0239 52.8828C80.6557 52.912 81.2866 52.8091 81.8764 52.5807C82.4662 52.3523 83.0019 52.0035 83.4492 51.5564C83.896 51.1088 84.2447 50.5731 84.4731 49.9833C84.7015 49.3936 84.8046 48.7627 84.7758 48.1309C84.7636 47.8595 84.8294 47.5903 84.9652 47.355C85.1011 47.1197 85.3014 46.9281 85.5425 46.803C86.1041 46.512 86.5989 46.1074 86.9954 45.6147C87.392 45.1221 87.6816 44.5523 87.8459 43.9416C88.009 43.3305 88.0431 42.6922 87.946 42.0672C87.8489 41.4422 87.6228 40.8443 87.2819 40.3116C87.1356 40.0827 87.0579 39.8167 87.0579 39.545C87.0579 39.2733 87.1356 39.0073 87.2819 38.7784ZM74.8753 65.4753L72.5397 63.1519C71.9301 62.5455 70.9453 62.5455 70.3357 63.1519L68.0002 65.4753V56.1016C68.9428 56.1463 69.8761 55.8974 70.6712 55.3891C70.9002 55.2428 71.1662 55.1651 71.4379 55.1651C71.7095 55.1651 71.9756 55.2428 72.2045 55.3891C72.9378 55.8583 73.7902 56.1076 74.6608 56.1073C74.7324 56.1073 74.8038 56.1037 74.8753 56.1003V65.4753ZM84.8272 43.133C84.777 43.3243 84.6869 43.5029 84.5628 43.657C84.4388 43.8111 84.2835 43.9372 84.1074 44.0272C82.5348 44.8402 81.5717 46.508 81.654 48.2764C81.6642 48.474 81.6326 48.6715 81.5611 48.856C81.4897 49.0405 81.3801 49.2078 81.2395 49.347C81.1003 49.4875 80.933 49.5971 80.7485 49.6685C80.564 49.74 80.3666 49.7717 80.169 49.7616C78.3996 49.6797 76.7327 50.6422 75.9197 52.2148C75.8298 52.3911 75.7036 52.5463 75.5495 52.6703C75.3953 52.7944 75.2167 52.8845 75.0253 52.9347C74.6347 53.0392 74.2316 52.9769 73.8911 52.7584C73.1587 52.2897 72.3072 52.041 71.4376 52.0419C70.5681 52.0411 69.7167 52.2898 68.9843 52.7584C68.8182 52.866 68.6314 52.9372 68.4359 52.9676C68.2404 52.998 68.0407 52.9868 67.8499 52.9347C67.6585 52.8844 67.48 52.7943 67.3258 52.6703C67.1717 52.5462 67.0455 52.391 66.9555 52.2148C66.1425 50.6423 64.4759 49.6789 62.7062 49.7616C62.5087 49.7716 62.3112 49.7399 62.1268 49.6685C61.9423 49.597 61.775 49.4875 61.6357 49.347C61.4951 49.2078 61.3855 49.0405 61.314 48.8559C61.2426 48.6714 61.211 48.4739 61.2212 48.2762C61.2792 47.0281 60.8146 45.8316 59.9845 44.9489C59.9602 44.922 59.9351 44.896 59.909 44.8709C59.5754 44.5313 59.1903 44.2466 58.7679 44.0272C58.4085 43.8414 58.1529 43.5239 58.0482 43.133C57.9435 42.742 58.006 42.3391 58.2244 41.9986C59.1799 40.5083 59.1799 38.5823 58.2244 37.092C58.1169 36.926 58.0456 36.7391 58.0152 36.5436C57.9848 36.3481 57.9961 36.1484 58.0482 35.9575C58.0984 35.7662 58.1885 35.5876 58.3126 35.4335C58.4367 35.2794 58.5919 35.1532 58.768 35.0633C60.3406 34.2503 61.3035 32.5825 61.2214 30.8141C61.2112 30.6165 61.2428 30.419 61.3143 30.2345C61.3857 30.05 61.4953 29.8826 61.6359 29.7434C61.7751 29.6029 61.9424 29.4934 62.1269 29.4219C62.3114 29.3505 62.5088 29.3188 62.7064 29.3289C64.4759 29.4109 66.1428 28.4483 66.9557 26.8756C67.0456 26.6994 67.1718 26.5442 67.3259 26.4201C67.4801 26.2961 67.6587 26.206 67.8501 26.1558C68.0409 26.1037 68.2405 26.0924 68.436 26.1228C68.6315 26.1532 68.8183 26.2245 68.9843 26.332C70.4748 27.2877 72.4009 27.2877 73.8909 26.332C74.057 26.2244 74.2438 26.1531 74.4393 26.1227C74.6348 26.0924 74.8345 26.1036 75.0253 26.1558C75.2167 26.206 75.3953 26.2961 75.5494 26.4202C75.7035 26.5442 75.8297 26.6994 75.9197 26.8756C76.7327 28.4481 78.4004 29.4114 80.169 29.3289C80.3666 29.3188 80.564 29.3504 80.7485 29.4219C80.933 29.4933 81.1003 29.6029 81.2395 29.7434C81.3801 29.8826 81.4897 30.0499 81.5612 30.2344C81.6326 30.419 81.6643 30.6165 81.654 30.8141C81.5718 32.5823 82.5347 34.2503 84.1075 35.0633C84.2837 35.1532 84.4389 35.2794 84.5629 35.4335C84.6869 35.5876 84.777 35.7662 84.8272 35.9575C84.8794 36.1483 84.8906 36.348 84.8603 36.5435C84.8299 36.739 84.7586 36.9259 84.651 37.0919C83.6955 38.5822 83.6955 40.5081 84.651 41.9984C84.7586 42.1645 84.83 42.3513 84.8603 42.5469C84.8907 42.7424 84.8794 42.9421 84.8272 43.133Z" fill="#3A3A3A"/>
<path d="M78.8687 35.2947C78.2585 34.6845 77.2691 34.6845 76.659 35.2947L71.4728 40.4809L69.4082 38.4164C68.798 37.8062 67.8087 37.8062 67.1983 38.4164C66.5882 39.0266 66.5882 40.0159 67.1983 40.6263L70.3678 43.7956C70.6729 44.1008 71.0728 44.2533 71.4726 44.2533C71.8725 44.2533 72.2725 44.1008 72.5775 43.7956L78.8687 37.5045C79.4789 36.8944 79.4789 35.905 78.8687 35.2947ZM39.4057 24.4375H27.8013C26.9384 24.4375 26.2388 25.137 26.2388 26C26.2388 26.863 26.9384 27.5625 27.8013 27.5625H39.4057C40.2687 27.5625 40.9682 26.863 40.9682 26C40.9682 25.137 40.2687 24.4375 39.4057 24.4375ZM55.3186 51.9375H37.4555C36.5925 51.9375 35.893 52.637 35.893 53.5C35.893 54.363 36.5925 55.0625 37.4555 55.0625H55.3184C56.1814 55.0625 56.881 54.363 56.881 53.5C56.881 52.637 56.1816 51.9375 55.3186 51.9375Z" fill="#3A3A3A"/>
<path d="M78.0012 20.5312C78.8642 20.5312 79.5637 19.8317 79.5637 18.9688V10.6875C79.5637 8.10281 77.4608 6 74.8761 6H12.6876C10.1028 6 8 8.10281 8 10.6875V81.3125C8 83.8972 10.1028 86 12.6876 86H74.8761C77.4608 86 79.5637 83.8972 79.5637 81.3125V76.9375C79.5637 76.0745 78.8642 75.375 78.0012 75.375C77.1382 75.375 76.4386 76.0745 76.4386 76.9375V81.3125C76.4386 82.1741 75.7377 82.875 74.8761 82.875H12.6876C11.826 82.875 11.1251 82.1741 11.1251 81.3125V10.6875C11.1251 9.82594 11.826 9.125 12.6876 9.125H74.8761C75.7377 9.125 76.4386 9.82594 76.4386 10.6875V18.9688C76.4386 19.8317 77.1382 20.5312 78.0012 20.5312Z" stroke="#3A3A3A" stroke-width="0.5"/>
<path d="M70.502 13.5H17.0617C16.1987 13.5 15.4992 14.1995 15.4992 15.0625V67.7188C15.4992 68.5817 16.1987 69.2812 17.0617 69.2812C17.9247 69.2812 18.6242 68.5817 18.6242 67.7188V16.625H68.9395V19.125C68.9395 19.988 69.6392 20.6875 70.502 20.6875C71.365 20.6875 72.0645 19.988 72.0645 19.125V15.0625C72.0645 14.1995 71.365 13.5 70.502 13.5ZM18.1658 52.3953C17.8723 52.1031 17.4753 51.9386 17.0611 51.9375C16.6501 51.9375 16.247 52.1047 15.9564 52.3953C15.6658 52.6859 15.4986 53.0891 15.4986 53.5C15.4986 53.9109 15.6658 54.3141 15.9564 54.6047C16.247 54.8953 16.6501 55.0625 17.0611 55.0625C17.4736 55.0625 17.8752 54.8953 18.1658 54.6047C18.458 54.3141 18.6236 53.9109 18.6236 53.5C18.6236 53.0891 18.458 52.6859 18.1658 52.3953ZM70.502 71.9375C69.639 71.9375 68.9395 72.637 68.9395 73.5V75.375H18.6242V59.5156C18.6242 58.6527 17.9247 57.9531 17.0617 57.9531C16.1987 57.9531 15.4992 58.6527 15.4992 59.5156V76.9375C15.4992 77.8005 16.1987 78.5 17.0617 78.5H70.502C71.365 78.5 72.0645 77.8005 72.0645 76.9375V73.5C72.0645 72.637 71.365 71.9375 70.502 71.9375Z" stroke="#3A3A3A" stroke-width="0.5"/>
<path d="M56.4233 61.2087C55.8131 60.5984 54.8239 60.5984 54.2136 61.2086L51.1254 64.2969L49.2058 62.3772C47.9938 61.1653 46.022 61.1653 44.81 62.3772L43.5609 63.6263C42.9507 64.2364 42.9507 65.2258 43.5609 65.8361C44.1711 66.4462 45.1605 66.4462 45.7708 65.8361L47.008 64.5989L48.9276 66.5186C49.5335 67.1245 50.3295 67.4275 51.1254 67.4275C51.9214 67.4275 52.7173 67.1245 53.3233 66.5186L56.4233 63.4186C57.0335 62.8084 57.0335 61.8191 56.4233 61.2087Z" stroke="#3A3A3A" stroke-width="0.5"/>
<path d="M87.2819 38.7784C87.6228 38.2457 87.8489 37.6478 87.946 37.0229C88.0431 36.3979 88.009 35.7596 87.8459 35.1486C87.6816 34.5379 87.392 33.9681 86.9954 33.4754C86.5989 32.9828 86.1041 32.5781 85.5425 32.2872C85.3014 32.162 85.1011 31.9705 84.9652 31.7352C84.8293 31.4999 84.7636 31.2306 84.7758 30.9592C84.8046 30.3275 84.7015 29.6966 84.4731 29.1069C84.2448 28.5171 83.8961 27.9814 83.4494 27.5337C83.0019 27.0868 82.4661 26.7381 81.8764 26.5097C81.2866 26.2813 80.6557 26.1783 80.0239 26.2073C79.7523 26.2201 79.4829 26.1546 79.2475 26.0187C79.012 25.8828 78.8206 25.6821 78.6959 25.4406C78.4049 24.8791 78.0002 24.3843 77.5076 23.9878C77.0149 23.5912 76.4451 23.3016 75.8344 23.1373C75.2234 22.9742 74.5851 22.94 73.9602 23.0371C73.3352 23.1342 72.7374 23.3604 72.2047 23.7013C71.9757 23.8475 71.7097 23.9253 71.438 23.9253C71.1663 23.9253 70.9003 23.8475 70.6714 23.7013C70.1386 23.3604 69.5408 23.1342 68.9159 23.0371C68.2909 22.9401 67.6526 22.9742 67.0416 23.1373C66.4309 23.3016 65.8611 23.5912 65.3684 23.9878C64.8758 24.3843 64.4711 24.8791 64.1802 25.4406C64.0547 25.6816 63.8632 25.8817 63.6279 26.0175C63.3927 26.1534 63.1235 26.2192 62.8522 26.2073C62.2204 26.1784 61.5896 26.2815 60.9998 26.5098C60.41 26.7382 59.8743 27.0869 59.4268 27.5337C58.98 27.9813 58.6313 28.517 58.4029 29.1068C58.1746 29.6965 58.0715 30.3273 58.1002 30.9591C58.1124 31.2305 58.0467 31.4998 57.9108 31.7351C57.775 31.9704 57.5746 32.162 57.3335 32.2872C56.772 32.5781 56.2772 32.9828 55.8806 33.4754C55.4841 33.9681 55.1944 34.5379 55.0302 35.1486C54.8746 35.7316 54.8368 36.3397 54.9191 36.9375H27.653C26.79 36.9375 26.0905 37.637 26.0905 38.5C26.0905 39.363 26.79 40.0625 27.653 40.0625H55.7174C55.6846 40.1495 55.6432 40.233 55.5939 40.3119C55.2531 40.8446 55.027 41.4425 54.9299 42.0674C54.8328 42.6924 54.8669 43.3307 55.03 43.9417C55.0753 44.1109 55.1311 44.2762 55.1952 44.4375H27.6525C26.7895 44.4375 26.09 45.137 26.09 46C26.09 46.863 26.7895 47.5625 27.6525 47.5625H58.0069C58.0766 47.7436 58.1082 47.9372 58.0997 48.1311C58.071 48.7629 58.174 49.3937 58.4024 49.9835C58.6308 50.5732 58.9795 51.109 59.4263 51.5566C59.8738 52.0035 60.4095 52.3523 60.9993 52.5807C61.589 52.8091 62.2199 52.912 62.8517 52.883C63.4037 52.8559 63.9256 53.1581 64.1797 53.6497C64.3662 54.0097 64.6001 54.3431 64.8752 54.6409V69.2336C64.8752 69.5423 64.9666 69.8441 65.138 70.1008C65.3093 70.3576 65.5529 70.5579 65.8379 70.6764C66.123 70.7949 66.4367 70.8263 66.7396 70.7666C67.0425 70.707 67.3209 70.559 67.5397 70.3412L71.4378 66.4636L75.3358 70.3412C75.5546 70.559 75.8331 70.7071 76.136 70.7667C76.4389 70.8263 76.7527 70.7948 77.0377 70.6763C77.3228 70.5577 77.5663 70.3575 77.7376 70.1007C77.909 69.8439 78.0004 69.5421 78.0004 69.2334V54.6408C78.2755 54.343 78.5094 54.0096 78.6959 53.6495C78.8212 53.4085 79.0128 53.2083 79.248 53.0725C79.4833 52.9366 79.7525 52.8708 80.0239 52.8828C80.6557 52.912 81.2866 52.8091 81.8764 52.5807C82.4662 52.3523 83.0019 52.0035 83.4492 51.5564C83.896 51.1088 84.2447 50.5731 84.4731 49.9833C84.7015 49.3936 84.8046 48.7627 84.7758 48.1309C84.7636 47.8595 84.8294 47.5903 84.9652 47.355C85.1011 47.1197 85.3014 46.9281 85.5425 46.803C86.1041 46.512 86.5989 46.1074 86.9954 45.6147C87.392 45.1221 87.6816 44.5523 87.8459 43.9416C88.009 43.3305 88.0431 42.6922 87.946 42.0672C87.8489 41.4422 87.6228 40.8443 87.2819 40.3116C87.1356 40.0827 87.0579 39.8167 87.0579 39.545C87.0579 39.2733 87.1356 39.0073 87.2819 38.7784ZM74.8753 65.4753L72.5397 63.1519C71.9301 62.5455 70.9453 62.5455 70.3357 63.1519L68.0002 65.4753V56.1016C68.9428 56.1463 69.8761 55.8974 70.6712 55.3891C70.9002 55.2428 71.1662 55.1651 71.4379 55.1651C71.7095 55.1651 71.9756 55.2428 72.2045 55.3891C72.9378 55.8583 73.7902 56.1076 74.6608 56.1073C74.7324 56.1073 74.8038 56.1037 74.8753 56.1003V65.4753ZM84.8272 43.133C84.777 43.3243 84.6869 43.5029 84.5628 43.657C84.4388 43.8111 84.2835 43.9372 84.1074 44.0272C82.5348 44.8402 81.5717 46.508 81.654 48.2764C81.6642 48.474 81.6326 48.6715 81.5611 48.856C81.4897 49.0405 81.3801 49.2078 81.2395 49.347C81.1003 49.4875 80.933 49.5971 80.7485 49.6685C80.564 49.74 80.3666 49.7717 80.169 49.7616C78.3996 49.6797 76.7327 50.6422 75.9197 52.2148C75.8298 52.3911 75.7036 52.5463 75.5495 52.6703C75.3953 52.7944 75.2167 52.8845 75.0253 52.9347C74.6347 53.0392 74.2316 52.9769 73.8911 52.7584C73.1587 52.2897 72.3072 52.041 71.4376 52.0419C70.5681 52.0411 69.7167 52.2898 68.9843 52.7584C68.8182 52.866 68.6314 52.9372 68.4359 52.9676C68.2404 52.998 68.0407 52.9868 67.8499 52.9347C67.6585 52.8844 67.48 52.7943 67.3258 52.6703C67.1717 52.5462 67.0455 52.391 66.9555 52.2148C66.1425 50.6423 64.4759 49.6789 62.7062 49.7616C62.5087 49.7716 62.3112 49.7399 62.1268 49.6685C61.9423 49.597 61.775 49.4875 61.6357 49.347C61.4951 49.2078 61.3855 49.0405 61.314 48.8559C61.2426 48.6714 61.211 48.4739 61.2212 48.2762C61.2792 47.0281 60.8146 45.8316 59.9845 44.9489C59.9602 44.922 59.9351 44.896 59.909 44.8709C59.5754 44.5313 59.1903 44.2466 58.7679 44.0272C58.4085 43.8414 58.1529 43.5239 58.0482 43.133C57.9435 42.742 58.006 42.3391 58.2244 41.9986C59.1799 40.5083 59.1799 38.5823 58.2244 37.092C58.1169 36.926 58.0456 36.7391 58.0152 36.5436C57.9848 36.3481 57.9961 36.1484 58.0482 35.9575C58.0984 35.7662 58.1885 35.5876 58.3126 35.4335C58.4367 35.2794 58.5919 35.1532 58.768 35.0633C60.3406 34.2503 61.3035 32.5825 61.2214 30.8141C61.2112 30.6165 61.2428 30.419 61.3143 30.2345C61.3857 30.05 61.4953 29.8826 61.6359 29.7434C61.7751 29.6029 61.9424 29.4934 62.1269 29.4219C62.3114 29.3505 62.5088 29.3188 62.7064 29.3289C64.4759 29.4109 66.1428 28.4483 66.9557 26.8756C67.0456 26.6994 67.1718 26.5442 67.3259 26.4201C67.4801 26.2961 67.6587 26.206 67.8501 26.1558C68.0409 26.1037 68.2405 26.0924 68.436 26.1228C68.6315 26.1532 68.8183 26.2245 68.9843 26.332C70.4748 27.2877 72.4009 27.2877 73.8909 26.332C74.057 26.2244 74.2438 26.1531 74.4393 26.1227C74.6348 26.0924 74.8345 26.1036 75.0253 26.1558C75.2167 26.206 75.3953 26.2961 75.5494 26.4202C75.7035 26.5442 75.8297 26.6994 75.9197 26.8756C76.7327 28.4481 78.4004 29.4114 80.169 29.3289C80.3666 29.3188 80.564 29.3504 80.7485 29.4219C80.933 29.4933 81.1003 29.6029 81.2395 29.7434C81.3801 29.8826 81.4897 30.0499 81.5612 30.2344C81.6326 30.419 81.6643 30.6165 81.654 30.8141C81.5718 32.5823 82.5347 34.2503 84.1075 35.0633C84.2837 35.1532 84.4389 35.2794 84.5629 35.4335C84.6869 35.5876 84.777 35.7662 84.8272 35.9575C84.8794 36.1483 84.8906 36.348 84.8603 36.5435C84.8299 36.739 84.7586 36.9259 84.651 37.0919C83.6955 38.5822 83.6955 40.5081 84.651 41.9984C84.7586 42.1645 84.83 42.3513 84.8603 42.5469C84.8907 42.7424 84.8794 42.9421 84.8272 43.133Z" stroke="#3A3A3A" stroke-width="0.5"/>
<path d="M78.8687 35.2947C78.2585 34.6845 77.2691 34.6845 76.659 35.2947L71.4728 40.4809L69.4082 38.4164C68.798 37.8062 67.8087 37.8062 67.1983 38.4164C66.5882 39.0266 66.5882 40.0159 67.1983 40.6263L70.3678 43.7956C70.6729 44.1008 71.0728 44.2533 71.4726 44.2533C71.8725 44.2533 72.2725 44.1008 72.5775 43.7956L78.8687 37.5045C79.4789 36.8944 79.4789 35.905 78.8687 35.2947ZM39.4057 24.4375H27.8013C26.9384 24.4375 26.2388 25.137 26.2388 26C26.2388 26.863 26.9384 27.5625 27.8013 27.5625H39.4057C40.2687 27.5625 40.9682 26.863 40.9682 26C40.9682 25.137 40.2687 24.4375 39.4057 24.4375ZM55.3186 51.9375H37.4555C36.5925 51.9375 35.893 52.637 35.893 53.5C35.893 54.363 36.5925 55.0625 37.4555 55.0625H55.3184C56.1814 55.0625 56.881 54.363 56.881 53.5C56.881 52.637 56.1816 51.9375 55.3186 51.9375Z" stroke="#3A3A3A" stroke-width="0.5"/>
<defs>
<linearGradient id="paint0_linear_135_497" x1="-13.3714" y1="78.8643" x2="96.6209" y2="18.9349" gradientUnits="userSpaceOnUse">
<stop stop-color="#F5E127"/>
<stop offset="1" stop-color="#F3C245"/>
</linearGradient>
</defs>
</svg>
